<?xml version="1.0" encoding="UTF-8" standalone="no"?>
<svg
   version="1.1"
   id="Layer_1"
   x="0px"
   y="0px"
   viewBox="0 0 816.00001 1344"
   enable-background="new 0 0 1393.084 1677.345"
   xml:space="preserve"
   sodipodi:docname="openclipart.org-308933-santa-waving-jb.svg"
   inkscape:version="1.2.1 (9c6d41e410, 2022-07-14)"
   width="8.5in"
   height="14in"
   xmlns:inkscape="http://www.inkscape.org/namespaces/inkscape"
   xmlns:sodipodi="http://sodipodi.sourceforge.net/DTD/sodipodi-0.dtd"
   xmlns="http://www.w3.org/2000/svg"
   xmlns:svg="http://www.w3.org/2000/svg"
   xmlns:rdf="http://www.w3.org/1999/02/22-rdf-syntax-ns#"
   xmlns:cc="http://creativecommons.org/ns#"
   xmlns:dc="http://purl.org/dc/elements/1.1/"><defs
     id="defs1018"><linearGradient
       id="linearGradient23962"
       inkscape:swatch="solid"><stop
         style="stop-color:#000000;stop-opacity:1;"
         offset="0"
         id="stop23960" /></linearGradient><inkscape:path-effect
       effect="show_handles"
       id="path-effect23958"
       is_visible="false"
       lpeversion="1"
       nodes="true"
       handles="true"
       original_path="true"
       show_center_node="false"
       original_d="false"
       scale_nodes_and_handles="2" /><linearGradient
       id="linearGradient1829"
       inkscape:swatch="solid"><stop
         style="stop-color:#ffffff;stop-opacity:1;"
         offset="0"
         id="stop1827" /></linearGradient></defs><sodipodi:namedview
     id="namedview1016"
     pagecolor="#ffffff"
     bordercolor="#666666"
     borderopacity="1.0"
     inkscape:showpageshadow="2"
     inkscape:pageopacity="0.0"
     inkscape:pagecheckerboard="true"
     inkscape:deskcolor="#d1d1d1"
     showgrid="false"
     inkscape:zoom="32"
     inkscape:cx="199"
     inkscape:cy="1064.875"
     inkscape:window-width="1920"
     inkscape:window-height="1057"
     inkscape:window-x="-8"
     inkscape:window-y="-8"
     inkscape:window-maximized="1"
     inkscape:current-layer="Layer_1"
     showguides="false"
     inkscape:document-units="mm" /><ellipse
     style="vector-effect:non-scaling-stroke;fill:#ffffff;fill-opacity:1;stroke:#000000;stroke-width:1;stroke-linejoin:round;stroke-dasharray:none;stroke-opacity:1;-inkscape-stroke:hairline"
     id="tassel"
     cx="230.3067"
     cy="976.60333"
     inkscape:label="tassel"
     rx="12.884063"
     ry="12.823815" /><path
     id="hat"
     d="m 157.62175,986.27043 c -18.96528,9.5591 -37.44679,24.63327 -49.48924,45.60577 30.00058,-3.2039 113.37673,-13.4471 136.65466,8.1002 0.93895,-34.5537 -21.70396,-55.63047 -27.29791,-67.44187 -11.01692,-4.481 -13.95722,-3.1415 -25.91892,-2.5458 -12.55134,0.6251 -28.30106,8.2827 -33.94859,16.2817 z"
     style="vector-effect:non-scaling-stroke;fill:#de292c;fill-opacity:1;stroke:#000000;stroke-width:1;stroke-dasharray:none;stroke-opacity:1;-inkscape-stroke:hairline"
     inkscape:label="hat"
     sodipodi:nodetypes="ccccsc" /><path
     id="ears"
     style="vector-effect:non-scaling-stroke;fill:#f8ba8a;fill-opacity:1;stroke:#000000;stroke-width:1;stroke-dasharray:none;stroke-opacity:1;-inkscape-stroke:hairline"
     d="m 228.753,1057.7908 c 8.796,4.5864 8.31292,15.4351 2.08417,19.4966 z m -114.76458,18.7667 c -3.29811,-3.544 -6.48585,-2.3323 -6.49211,-7.991 0.0405,-7.0083 6.98214,-6.1277 7.77091,-8.2159 z"
     inkscape:label="ears"
     sodipodi:nodetypes="ccccccc" /><path
     style="vector-effect:non-scaling-stroke;fill:#f8ba8a;fill-opacity:1;stroke:#000000;stroke-width:1;stroke-dasharray:none;stroke-opacity:1;-inkscape-stroke:hairline"
     d="m 113.32562,1060.2928 c -1.63191,-40.0477 110.14833,-44.2149 115.54418,-1.3398 1.42181,11.2969 2.57718,17.0777 2.71765,17.5516 -33.6867,26.9532 -95.48405,20.1988 -117.59903,0.053 z"
     id="head"
     sodipodi:nodetypes="ssccs"
     inkscape:label="head" /><path
     id="hat_cuff"
     style="vector-effect:non-scaling-stroke;fill:#fffcfc;fill-opacity:1;stroke:#000000;stroke-width:1;stroke-dasharray:none;stroke-opacity:1;-inkscape-stroke:hairline"
     d="m 107.72043,1032.2466 c 44.2032,-29.7635 104.9403,-24.6465 137.06671,7.7295 7.01415,7.0686 -3.33338,30.3181 -11.55914,21.6002 -31.40267,-33.2816 -100.39472,-30.2852 -119.90108,0.1827 -5.39772,8.4309 -16.882346,-21.92 -5.60649,-29.5124 z"
     sodipodi:nodetypes="sssss"
     inkscape:label="hat cuff" /><path
     id="pants"
     d="m 207.53582,1276.2057 c -1.35952,2.9327 -1.59936,12.5191 -2.91753,14.0469 0.28605,3.8158 0.23847,7.5549 0.29651,11.1839 -13.62336,-0.508 -26.42282,0.068 -39.22154,-0.4153 -0.85204,-4.2776 -4.23656,-19.3703 -5.08277,-23.6483 16.86289,0.4468 31.75992,-0.48 46.92533,-1.1672 z m -91.80488,1.5437 c 14.36586,1.3123 29.96861,-0.201 44.38699,-0.3507 -1.01742,4.6088 -2.19454,21.0196 -3.20608,25.6302 -11.68495,-0.5873 -22.33244,-1.2995 -34.01859,-1.886 -1.71701,-4.5026 -5.44287,-18.8906 -7.16232,-23.3935 z"
     style="vector-effect:non-scaling-stroke;fill:#de292c;fill-opacity:1;stroke:#000000;stroke-width:1;stroke-dasharray:none;stroke-opacity:1;-inkscape-stroke:hairline"
     inkscape:label="pants"
     sodipodi:nodetypes="ccccccccccc" /><path
     style="vector-effect:non-scaling-stroke;fill:#772f17;fill-opacity:1;stroke:#000000;stroke-width:1;stroke-dasharray:none;stroke-opacity:1;-inkscape-stroke:hairline"
     d="m 157.34474,1300.9397 c -13.4033,-0.6837 -23.15581,-0.9188 -34.77472,-1.4835 -2.84182,10.3192 -1.3819,6.1988 -3.96234,14.3183 8.29053,4.5404 24.57184,7.0348 37.97955,15.1063 z m 5.17179,28.3259 c 18.05151,0.7283 25.06797,-5.4066 43.38898,-12.2879 -0.0441,-4.2217 -0.89265,-11.8711 -0.98021,-15.9235 -14.12549,-0.5079 -25.27212,-0.404 -39.39884,-0.8995 z"
     id="boot2"
     sodipodi:nodetypes="cccccccccc"
     inkscape:label="boot2" /><path
     id="arms"
     style="vector-effect:non-scaling-stroke;fill:#de292c;fill-opacity:1;stroke:#000000;stroke-width:1;stroke-dasharray:none;stroke-opacity:1;-inkscape-stroke:hairline"
     d="m 104.6543,1158.916 c -20.156693,-22.7772 -48.310134,-26.4301 -64.962349,-41.3572 l -13.416363,-29.3411 c -16.8172332,-6.4822 -33.6330787,-21.7137 -22.8967024,-36.6843 8.7221074,-5.5098 22.1786914,-0.7986 28.7295174,4.0849 -1.213945,-3.8177 -2.372257,-10.4643 2.865601,-12.046 5.593326,-1.6899 9.187755,15.92 13.623261,20.3802 l 26.358089,12.9331 c 12.054633,8.1225 24.471416,17.583 35.373686,25.2789 11.2702,13.6296 -2.27884,40.3311 -5.67474,56.7515 z m 127.67922,-38.6711 c 16.93947,7.0941 33.06175,17.7927 43.22477,31.374 l 15.07304,28.1044 c 10.20538,7.2816 32.37495,29.4186 19.10187,35.8305 -7.95488,2.5493 -18.84799,-3.3422 -24.22922,-7.5518 -0.0113,2.9253 0.9306,6.4025 -0.93166,8.4306 -5.58567,6.0819 -10.52299,-14.9967 -12.57653,-19.4558 l -35.13342,-11.6798 z"
     inkscape:label="arms"
     sodipodi:nodetypes="cccccscccccccccsccc" /><path
     id="arm_cuffs"
     style="vector-effect:non-scaling-stroke;fill:#ffffff;fill-opacity:1;stroke:#000000;stroke-width:1;stroke-dasharray:none;stroke-opacity:1;-inkscape-stroke:hairline"
     d="m 277.49309,1157.0646 c -5.57543,14.7964 -18.72438,26.9617 -29.83194,31.5131 -5.84214,2.3939 1.21251,12.5068 6.54945,13.139 18.45311,2.1859 38.56465,-21.4932 36.52306,-37.4468 -1.15888,-9.0559 -10.64973,-14.081 -13.24057,-7.2053 z M 70.594297,1064.132 c 3.830547,3.8006 4.850483,9.9449 1.256556,12.9369 -13.375284,11.135 -25.283063,23.5094 -30.158304,38.3817 -2.650792,8.0865 -11.302221,1.329 -14.774516,-1.5848 -12.345017,-10.3596 24.608641,-68.6524 43.676264,-49.7338 z"
     inkscape:label="arm cuffs"
     sodipodi:nodetypes="ssssssssss" /><path
     style="vector-effect:non-scaling-stroke;fill:#de292c;fill-opacity:1;stroke:#000000;stroke-width:1;stroke-dasharray:none;stroke-opacity:1;-inkscape-stroke:hairline"
     d="m 224.56859,1115.8138 c 16.76949,36.273 17.5221,74.5016 25.10209,108.7957 -58.77418,36.3579 -129.73779,32.5337 -178.895862,2.8222 8.792092,-38.7149 31.050292,-86.9067 57.665432,-112.5772 z"
     id="body"
     sodipodi:nodetypes="ccccc" /><path
     id="mouth"
     d="m 164.179,1107.7496 c 2.76057,-2.1653 5.9755,-4.7588 8.40652,-7.2873 2.2002,2.16 4.90758,4.7844 7.2885,6.7467 -1.57336,13.4913 -15.31516,9.8468 -15.69502,0.5406 z"
     style="vector-effect:non-scaling-stroke;fill:#6d0d09;fill-opacity:1;stroke:#000000;stroke-width:1;stroke-dasharray:none;stroke-opacity:1;-inkscape-stroke:hairline"
     sodipodi:nodetypes="cccc"
     inkscape:label="mouth" /><path
     id="lips"
     style="vector-effect:non-scaling-stroke;fill:#a61a14;fill-opacity:1;stroke:#000000;stroke-width:1;stroke-dasharray:none;stroke-opacity:1;-inkscape-stroke:hairline"
     d="m 160.65966,1110.0298 c 0.94488,-0.6754 3.10557,-1.2788 4.02676,-1.9844 1.8159,11.4063 13.15647,9.6007 14.72275,-0.7941 0.88766,0.7253 2.46696,1.0494 3.37739,1.7471 -0.92794,19.7843 -20.24562,17.9919 -22.1269,1.0314 z"
     sodipodi:nodetypes="ccccc"
     inkscape:label="lips" /><path
     style="vector-effect:non-scaling-stroke;fill:#ffffff;fill-opacity:1;stroke:#000000;stroke-width:1;stroke-dasharray:none;stroke-opacity:1;-inkscape-stroke:hairline"
     d="m 105.77002,1121.6112 c 3.77659,-12.4187 3.14142,-20.3565 1.34228,-32.7313 -1.38626,-9.535 3.19544,-12.3609 6.87685,-12.3227 5.95677,0.062 33.73111,16.1929 38.15492,19.1054 13.75763,9.0575 5.89834,27.0189 19.26459,27.2052 14.70611,0.2041 7.7561,-17.9937 13.96931,-22.8327 5.09234,-3.966 44.36163,-25.2753 49.46934,-23.388 5.80247,2.144 5.17802,13.7846 5.17594,18.6662 -0.006,13.5312 -7.06053,30.0319 -3.09422,41.2133 10.91406,30.7677 -20.98672,40.8769 -39.96655,40.9608 -19.41372,32.5072 -65.43154,8.7609 -72.28577,-10.7497 -2.81323,-8.0076 6.2576,-11.3826 0.27754,-14.5921 -12.80978,-6.875 -22.76576,-18.7572 -19.18423,-30.5344 z"
     id="beard"
     sodipodi:nodetypes="ssssssssscsss"
     inkscape:label="beard" /><path
     style="vector-effect:non-scaling-stroke;fill:#ffffff;fill-opacity:1;stroke:#000000;stroke-width:1;stroke-dasharray:none;stroke-opacity:1;-inkscape-stroke:hairline"
     d="m 55.868376,1264.2528 c -14.842948,-11.1085 1.740931,-40.1851 17.154048,-36.8498 58.155916,12.5847 123.668616,13.5043 173.991016,-3.1174 19.65639,-6.4926 33.54531,32.1917 12.84297,42.0897 -44.12333,21.0959 -175.295604,19.351 -203.988034,-2.1225 z"
     id="jacket_cuff"
     sodipodi:nodetypes="sssss"
     inkscape:label="jacket cuff" /><path
     id="eyebrows"
     d="m 152.12793,1043.8765 c 6.44674,0.4927 13.02769,4.5369 10.9389,9.0829 -1.47365,3.2072 -6.0348,0.6321 -8.37938,0.4649 -8.11995,-0.579 -16.27856,0.097 -22.38151,4.1042 -2.21255,1.4529 -3.48796,0.7225 -2.43445,-1.3134 5.65041,-10.9193 11.58552,-13.1541 22.25644,-12.3386 z m 42.89192,0.8738 c 9.11753,-0.4338 17.23199,2.576 19.16952,11.7218 0.24623,1.1623 0.70657,2.5327 -0.50792,2.0613 -7.67169,-2.9775 -17.86994,-4.9515 -25.24764,-3.4105 -2.98842,0.6242 -8.18123,1.8031 -7.76895,-1.2782 0.87542,-6.5428 9.06144,-8.8425 14.35499,-9.0944 z"
     style="vector-effect:non-scaling-stroke;fill:#ffffff;fill-opacity:1;stroke:#000000;stroke-width:1;stroke-dasharray:none;stroke-opacity:1;-inkscape-stroke:hairline"
     inkscape:label="eyebrows"
     sodipodi:nodetypes="ssssssssssss" /><path
     id="eyes"
     d="m 198.2999,1067.1731 c 0.68155,1.8976 -1.06258,3.9313 -2.5614,4.2178 -1.49882,0.2865 -3.13173,-0.046 -3.76014,-1.9679 -0.62841,-1.9221 -0.007,-3.628 2.11539,-4.4298 2.12274,-0.8019 3.52459,0.2824 4.20615,2.1799 z m -50.34762,-2.4462 c 2.22656,-0.8518 3.88578,1.4425 4.07354,3.0629 0.18776,1.6205 -1.69356,3.6439 -3.29039,3.6699 -1.59926,0.087 -3.13186,-1.1047 -3.45552,-2.6615 -0.45337,-1.7892 0.44581,-3.2195 2.67237,-4.0713 z m 55.55397,1.9442 c 0.11358,0.5004 -1.01661,0.8849 -1.14346,0.3798 -2.74081,-10.9142 -12.73249,-7.5355 -15.0712,-0.3188 -0.17149,0.5292 -1.3371,0.3612 -1.18229,-0.1819 2.88623,-10.1256 14.86088,-11.0515 17.39695,0.1209 z m -46.14397,-0.1346 c 0.12708,1.2163 -1.188,0.6551 -1.39578,-0.1081 -2.77362,-10.1873 -13.62685,-6.8739 -14.64093,0.1232 -0.19386,1.3376 -1.62557,0.5372 -1.35893,-0.4834 3.01923,-11.556 16.44436,-8.6365 17.39564,0.4683 z"
     inkscape:label="eyes"
     style="vector-effect:non-scaling-stroke;stroke:#000000;stroke-width:1;stroke-dasharray:none;stroke-opacity:1;-inkscape-stroke:hairline"
     sodipodi:nodetypes="zzzzzccczcssssssssss" /><path
     fill="#f9f9f9"
     stroke="#f9f9f9"
     stroke-width="0.5"
     d="m 185.50506,1078.6385 c 8.63578,-3.9775 13.63912,-4.3256 21.11054,2.0572 5.87948,5.023 17.51211,4.9315 23.84009,-3.5081 -3.7271,19.3666 -8.15658,42.4129 -29.37317,40.6985 -4.01369,-0.344 -7.85347,-1.7764 -11.39108,-3.6386 -6.63544,-3.7353 -12.12064,-8.2725 -17.14814,-13.1935 -6.70378,6.4876 -14.10225,12.2574 -22.26232,15.3501 -4.25994,1.587 -8.93677,2.3989 -13.44959,1.5209 -17.18932,-4.8567 -22.59927,-24.086 -23.32345,-41.3297 11.24636,9.6083 15.82865,12.3817 26.80194,3.7081 5.28794,-3.2953 9.56286,-5.6836 15.34758,-3.3411 -0.57092,9.9987 7.73861,16.2322 18.062,15.6525 5.08303,-0.5806 9.48741,-2.2598 11.38031,-6.9271 0.83618,-2.2292 1.10514,-4.7493 0.40529,-7.0492 z"
     id="moustache"
     style="vector-effect:non-scaling-stroke;fill:#ececec;fill-opacity:1;stroke:#000000;stroke-width:1;stroke-dasharray:none;stroke-opacity:1;-inkscape-stroke:hairline"
     sodipodi:nodetypes="cscccccccccccc"
     inkscape:label="moustache" /><path
     style="vector-effect:non-scaling-stroke;fill:#f8ba8a;fill-opacity:1;stroke:#000000;stroke-width:1;stroke-dasharray:none;stroke-opacity:1;-inkscape-stroke:hairline"
     d="m 185.50529,1078.6385 c 5.41937,19.8372 -31.35508,19.5201 -29.84783,-1.6758 2.06528,-8.1025 26.90657,-6.6138 29.84783,1.6758 z"
     id="nose"
     sodipodi:nodetypes="ccc"
     inkscape:label="nose" /><path
     id="belt"
     d="m 243.86722,1193.0711 c 2.42895,11.2266 1.98911,11.0115 3.34851,18.4477 -54.76114,17.2644 -126.87804,16.2436 -172.738667,1.8357 1.749255,-7.3942 4.671752,-14.7059 7.256997,-21.9267 54.59139,14.7737 110.44942,14.9615 162.13316,1.6433 z"
     sodipodi:nodetypes="ccccc"
     inkscape:label="belt"
     style="vector-effect:non-scaling-stroke;stroke:#000000;stroke-width:1;stroke-dasharray:none;stroke-opacity:1;-inkscape-stroke:hairline" /><path
     fill="#e9d70b"
     stroke="#e9d70b"
     stroke-width="0.5"
     d="m 142.20374,1196.6484 c 0.0465,-1.937 0.60299,-2.279 2.64577,-2.2844 6.86584,-0.018 26.75084,0.022 33.97361,-0.033 1.05424,-0.01 2.44288,0.656 2.4159,1.8667 -0.26391,11.8399 0.15394,24.0431 0.004,35.0265 -0.0109,0.7969 -0.88759,1.403 -1.69455,1.403 h -35.57266 c -0.93154,0 -1.76093,-0.773 -1.77051,-1.7007 -0.0403,-3.9031 -0.2587,-23.5628 -0.002,-34.2781 z m 10.34613,5.9969 c -0.83107,0 -1.45485,0.9134 -1.43023,1.7424 0.19317,6.5049 -0.0303,12.9416 0.0852,18.2824 0.0171,0.7904 0.88938,1.3881 1.68796,1.4194 6.57316,0.2578 12.42315,0.094 18.08955,-0.1785 1.12467,-0.054 1.70752,-0.4743 1.70731,-1.5207 -0.001,-5.9985 -0.0309,-11.9974 0.001,-17.9961 0.004,-0.7778 -0.50518,-1.7101 -1.2827,-1.7152 -6.58648,-0.013 -14.82738,-0.049 -18.85809,-0.034 z"
     id="buckle"
     sodipodi:nodetypes="sssssssssscsssssscc"
     inkscape:label="buckle"
     style="-inkscape-stroke:hairline;stroke-opacity:1;stroke-dasharray:none;stroke-linecap:butt;stroke-width:1;stroke:#000000;fill-opacity:1;fill:gold;vector-effect:non-scaling-stroke;" /><path
     id="boots"
     d="m 213.95143,1329.348 c 0.93112,11.4529 -13.7632,14.6495 -22.14456,14.6256 -14.43001,-0.041 -30.7709,0.6478 -29.57918,-17.477 0.59496,-9.0487 14.43193,-15.0924 21.72089,-15.2016 12.79544,-0.1918 28.96623,5.3024 30.00285,18.053 z m -84.01711,-17.9025 c 12.08385,0.068 26.1071,4.9994 26.78281,17.8953 0.66705,12.7307 -13.01693,14.5294 -22.38493,14.6592 -18.14939,0.2515 -28.52938,-0.1887 -28.95108,-14.8548 -0.2473,-8.6008 12.91137,-17.7654 24.5532,-17.6997 z"
     style="vector-effect:non-scaling-stroke;fill:#974327;fill-opacity:1;stroke:#000000;stroke-width:1;stroke-dasharray:none;stroke-opacity:1;-inkscape-stroke:hairline"
     inkscape:label="boots"
     sodipodi:nodetypes="ssssssssss" /><metadata
     id="metadata1148"><rdf:RDF><cc:Work
         rdf:about=""><cc:license
           rdf:resource="http://creativecommons.org/publicdomain/zero/1.0/" /><dc:description>Original from https://openclipart.org/detail/308933/santa-waving
Modified by Jordan Brown for SCADvent 2022.</dc:description><dc:contributor><cc:Agent><dc:title>Gordon Dylan Johnson https://openclipart.org/artist/GDJ
Jordan Brown openscad@jordan.maileater.net</dc:title></cc:Agent></dc:contributor></cc:Work><cc:License
         rdf:about="http://creativecommons.org/publicdomain/zero/1.0/"><cc:permits
           rdf:resource="http://creativecommons.org/ns#Reproduction" /><cc:permits
           rdf:resource="http://creativecommons.org/ns#Distribution" /><cc:permits
           rdf:resource="http://creativecommons.org/ns#DerivativeWorks" /></cc:License></rdf:RDF></metadata></svg>
