<?xml version="1.0" encoding="UTF-8" standalone="no"?>
<svg
   version="1.1"
   id="Layer_1"
   x="0px"
   y="0px"
   viewBox="0 0 816.00001 1344"
   enable-background="new 0 0 1393.084 1677.345"
   xml:space="preserve"
   sodipodi:docname="openclipart.org-308933-santa-waving-jb.svg"
   inkscape:version="1.2.1 (9c6d41e410, 2022-07-14)"
   width="8.5in"
   height="14in"
   xmlns:inkscape="http://www.inkscape.org/namespaces/inkscape"
   xmlns:sodipodi="http://sodipodi.sourceforge.net/DTD/sodipodi-0.dtd"
   xmlns="http://www.w3.org/2000/svg"
   xmlns:svg="http://www.w3.org/2000/svg"
   xmlns:rdf="http://www.w3.org/1999/02/22-rdf-syntax-ns#"
   xmlns:cc="http://creativecommons.org/ns#"
   xmlns:dc="http://purl.org/dc/elements/1.1/"><defs
     id="defs1018"><linearGradient
       id="linearGradient23962"
       inkscape:swatch="solid"><stop
         style="stop-color:#000000;stop-opacity:1;"
         offset="0"
         id="stop23960" /></linearGradient><inkscape:path-effect
       effect="show_handles"
       id="path-effect23958"
       is_visible="false"
       lpeversion="1"
       nodes="true"
       handles="true"
       original_path="true"
       show_center_node="false"
       original_d="false"
       scale_nodes_and_handles="2" /><linearGradient
       id="linearGradient1829"
       inkscape:swatch="solid"><stop
         style="stop-color:#ffffff;stop-opacity:1;"
         offset="0"
         id="stop1827" /></linearGradient></defs><sodipodi:namedview
     id="namedview1016"
     pagecolor="#ffffff"
     bordercolor="#666666"
     borderopacity="1.0"
     inkscape:showpageshadow="2"
     inkscape:pageopacity="0.0"
     inkscape:pagecheckerboard="true"
     inkscape:deskcolor="#d1d1d1"
     showgrid="false"
     inkscape:zoom="2.9576869"
     inkscape:cx="154.85074"
     inkscape:cy="1310.4836"
     inkscape:window-width="1920"
     inkscape:window-height="1057"
     inkscape:window-x="-8"
     inkscape:window-y="-8"
     inkscape:window-maximized="1"
     inkscape:current-layer="Layer_1"
     showguides="false"
     inkscape:document-units="mm" /><ellipse
     style="vector-effect:non-scaling-stroke;fill:#ffffff;fill-opacity:1;stroke:#000000;stroke-width:1;stroke-linejoin:round;stroke-dasharray:none;stroke-opacity:1;-inkscape-stroke:hairline"
     id="tassel"
     cx="230.3067"
     cy="976.60333"
     inkscape:label="tassel"
     rx="12.884063"
     ry="12.823815" /><path
     id="hat"
     d="m 157.62175,986.27043 c -18.96528,9.5591 -37.44679,24.63327 -49.48924,45.60577 30.00058,-3.2039 113.37673,-13.4471 136.65466,8.1002 0.93895,-34.5537 -21.70396,-55.63047 -27.29791,-67.44187 -11.01692,-4.481 -13.95722,-3.1415 -25.91892,-2.5458 -12.55134,0.6251 -28.30106,8.2827 -33.94859,16.2817 z"
     style="vector-effect:non-scaling-stroke;fill:#de292c;fill-opacity:1;stroke:#000000;stroke-width:1;stroke-dasharray:none;stroke-opacity:1;-inkscape-stroke:hairline"
     inkscape:label="hat"
     sodipodi:nodetypes="ccccsc" /><path
     id="ears"
     style="vector-effect:non-scaling-stroke;fill:#f8ba8a;fill-opacity:1;stroke:#000000;stroke-width:1;stroke-dasharray:none;stroke-opacity:1;-inkscape-stroke:hairline"
     d="m 228.753,1057.7908 c 8.796,4.5864 8.31292,15.4351 2.08417,19.4966 z m -114.76458,18.7667 c -3.29811,-3.544 -6.48585,-2.3323 -6.49211,-7.991 0.0405,-7.0083 4.98214,-6.1277 5.77091,-8.2159 z"
     inkscape:label="ears" /><path
     style="vector-effect:non-scaling-stroke;fill:#f8ba8a;fill-opacity:1;stroke:#000000;stroke-width:1;stroke-dasharray:none;stroke-opacity:1;-inkscape-stroke:hairline"
     d="m 113.32562,1060.2928 c -1.63191,-40.0477 110.14833,-44.2149 115.54418,-1.3398 1.42181,11.2969 2.57718,17.0777 2.71765,17.5516 -33.6867,26.9532 -95.48405,20.1988 -117.59903,0.053 z"
     id="head"
     sodipodi:nodetypes="ssccs"
     inkscape:label="head" /><path
     id="hat_cuff"
     style="vector-effect:non-scaling-stroke;fill:#fffcfc;fill-opacity:1;stroke:#000000;stroke-width:1;stroke-dasharray:none;stroke-opacity:1;-inkscape-stroke:hairline"
     d="m 107.72043,1032.2466 c 38.82719,-19.1602 108.35513,-22.5826 137.06671,7.7295 2.36531,7.4577 -5.48129,18.9973 -11.55914,21.6002 -34.81595,-31.8699 -102.50901,-29.1173 -119.90108,1.5969 -10.4577,-3.0229 -11.59703,-24.766 -5.60649,-30.9266 z"
     sodipodi:nodetypes="ccccc"
     inkscape:label="hat cuff" /><path
     style="vector-effect:non-scaling-stroke;fill:#772f17;fill-opacity:1;stroke:#000000;stroke-width:1;stroke-dasharray:none;stroke-opacity:1;-inkscape-stroke:hairline"
     d="m 157.34474,1300.9397 c -13.4033,-0.6837 -23.15581,-0.9188 -34.77472,-1.4835 -2.84182,10.3192 -1.3819,6.1988 -3.96234,14.3183 8.29053,4.5404 24.57184,7.0348 37.97955,15.1063 z m 5.17179,28.3259 c 18.05151,0.7283 25.06797,-5.4066 43.38898,-12.2879 -0.0441,-4.2217 -0.89265,-11.8711 -0.98021,-15.9235 -14.12549,-0.5079 -25.27212,-0.404 -39.39884,-0.8995 z"
     id="boot2"
     sodipodi:nodetypes="cccccccccc"
     inkscape:label="boot2" /><path
     id="pants"
     d="m 200.72539,1286.0352 c 2.1098,-0.098 4.21936,-0.2268 6.3292,-0.3099 l 0.0189,0.061 c 0.0227,0.038 0.0631,0.079 0.0843,0.102 0.10938,0 0.32931,-0.042 0.4402,-0.057 -0.9246,1.5148 -1.99185,2.9458 -2.9797,4.4213 0.25829,3.7991 0.46998,7.6013 0.70084,11.4028 -6.20779,-0.2495 -12.41924,-0.4286 -18.62699,-0.6622 -6.4626,-0.2117 -12.92272,-0.4513 -19.38378,-0.6663 -0.64147,-0.064 -1.28982,0 -1.9276,-0.087 -0.85204,-4.2776 -1.83596,-8.5318 -2.68217,-12.8098 12.68353,-0.1474 25.3573,-0.7548 38.02522,-1.3966 z m -83.49445,0 c 14.36586,1.3123 28.80671,1.57 43.22509,1.4207 -1.01742,4.6088 -2.02284,9.2205 -3.03438,13.8311 -11.68495,-0.5873 -23.37257,-1.1486 -35.05872,-1.7351 -1.71701,-4.5026 -3.41254,-9.0138 -5.13199,-13.5167 z"
     style="vector-effect:non-scaling-stroke;fill:#de292c;fill-opacity:1;stroke:#000000;stroke-width:1;stroke-dasharray:none;stroke-opacity:1;-inkscape-stroke:hairline"
     inkscape:label="pants" /><path
     id="arms"
     style="vector-effect:non-scaling-stroke;fill:#de292c;fill-opacity:1;stroke:#000000;stroke-width:1;stroke-dasharray:none;stroke-opacity:1;-inkscape-stroke:hairline"
     d="m 104.6543,1158.916 c -20.156693,-22.7772 -48.310134,-26.4301 -64.962349,-41.3572 l -13.416363,-29.3411 c -16.8172332,-6.4822 -33.6330787,-21.7137 -22.8967024,-36.6843 8.7221074,-5.5098 22.1786914,-0.7986 28.7295174,4.0849 -1.213945,-3.8177 -2.372257,-10.4643 2.865601,-12.046 5.593326,-1.6899 9.187755,15.92 13.623261,20.3802 l 26.358089,12.9331 c 12.054633,8.1225 24.471416,17.583 35.373686,25.2789 11.2702,13.6296 -2.27884,40.3311 -5.67474,56.7515 z m 127.67922,-38.6711 c 16.93947,7.0941 33.06175,17.7927 43.22477,31.374 l 15.07304,28.1044 c 10.20538,7.2816 32.37495,29.4186 19.10187,35.8305 -7.95488,2.5493 -18.84799,-3.3422 -24.22922,-7.5518 -0.0113,2.9253 0.9306,6.4025 -0.93166,8.4306 -5.58567,6.0819 -10.52299,-14.9967 -12.57653,-19.4558 l -35.13342,-11.6798 z"
     inkscape:label="arms"
     sodipodi:nodetypes="cccccscccccccccsccc" /><path
     style="vector-effect:non-scaling-stroke;fill:#de292c;fill-opacity:1;stroke:#000000;stroke-width:1;stroke-dasharray:none;stroke-opacity:1;-inkscape-stroke:hairline"
     d="m 224.56859,1115.8138 c 16.76949,36.273 17.5221,74.5016 25.10209,108.7957 -58.77418,36.3579 -129.73779,32.5337 -178.895862,2.8222 8.792092,-38.7149 31.050292,-86.9067 57.665432,-112.5772 z"
     id="body"
     sodipodi:nodetypes="ccccc" /><path
     id="mouth"
     d="m 164.68615,1108.0454 c 2.76057,-2.1653 5.42609,-4.4629 7.85711,-6.9914 2.2002,2.16 4.48495,4.235 6.86587,6.1973 -1.57336,13.4913 -14.34312,10.1003 -14.72298,0.7941 z"
     style="vector-effect:non-scaling-stroke;fill:#6d0d09;fill-opacity:1;stroke:#000000;stroke-width:1;stroke-dasharray:none;stroke-opacity:1;-inkscape-stroke:hairline"
     sodipodi:nodetypes="cccc"
     inkscape:label="mouth" /><path
     id="lips"
     style="vector-effect:non-scaling-stroke;fill:#a61a14;fill-opacity:1;stroke:#000000;stroke-width:1;stroke-dasharray:none;stroke-opacity:1;-inkscape-stroke:hairline"
     d="m 176.84839,1121.6448 c -1.59561,1.2816 -3.69124,2.0111 -5.74732,1.7374 -1.97055,-0.2419 -3.7506,-1.3296 -5.09291,-2.7526 -2.76721,-3.0712 -3.81973,-6.7494 -4.12288,-10.5153 0.94488,-0.6754 1.87995,-1.3633 2.80114,-2.0689 0.84072,4.5399 2.66994,6.6356 5.26511,7.7166 1.64591,0.6232 3.56031,0.4539 5.07505,-0.4369 3.13346,-2.1865 3.92283,-4.8333 4.38259,-8.0738 0.88766,0.7253 1.79076,1.4298 2.70119,2.1275 0.25828,4.8222 -2.04876,10.0229 -5.26197,12.266 z"
     sodipodi:nodetypes="cccccccccc"
     inkscape:label="lips" /><path
     style="vector-effect:non-scaling-stroke;fill:#ffffff;fill-opacity:1;stroke:#000000;stroke-width:1;stroke-dasharray:none;stroke-opacity:1;-inkscape-stroke:hairline"
     d="m 124.44709,1152.0611 c -12.87255,-5.6023 -21.66639,-18.5086 -18.67707,-30.4499 4.36011,-12.226 4.23947,-20.5666 1.34228,-32.7313 -0.27167,-9.6314 3.20673,-12.0321 6.87685,-12.3227 5.94428,0.3904 34.16626,15.6207 38.15492,19.1054 14.13898,8.4498 5.89834,27.0189 19.26459,27.2052 14.70611,0.2041 7.87679,-17.8426 13.96931,-22.8327 5.20887,-3.8117 44.23149,-24.8764 49.46934,-23.388 5.64382,2.5323 5.33759,13.7873 5.17594,18.6662 0.15382,13.5303 -5.86101,29.6764 -3.09422,41.2133 12.08354,30.3275 -20.98672,40.8769 -39.96655,40.9608 -19.41372,32.5072 -65.43154,8.7609 -72.28577,-10.7497 -2.81323,-8.0076 4.50715,-10.4526 -0.2296,-14.6766"
     id="beard"
     sodipodi:nodetypes="cccccscccccsc"
     inkscape:label="beard" /><path
     style="vector-effect:non-scaling-stroke;fill:#ffffff;fill-opacity:1;stroke:#000000;stroke-width:1;stroke-dasharray:none;stroke-opacity:1;-inkscape-stroke:hairline"
     d="m 115.16345,1285.8538 c -10.92592,-0.8311 -22.784638,-2.9129 -33.291425,-6.0858 -5.05114,-1.5348 -10.010914,-3.4405 -14.640916,-5.9882 -3.524653,-1.954 -6.870497,-4.2837 -9.697991,-7.1629 -0.725745,-0.6565 -1.143455,-1.5549 -1.664742,-2.3641 -1.462478,-2.4745 -2.686784,-5.094 -3.531738,-7.841 -0.404519,-1.3326 -0.712797,-2.6925 -0.925801,-4.0664 -0.0452,-0.3552 -0.08572,-0.7128 -0.132132,-1.0669 -0.299941,-2.9786 -0.08451,-6.0238 0.796094,-8.8936 1.546995,-5.1711 5.072629,-9.6714 9.591976,-12.6171 2.153781,-1.3962 4.547926,-2.4865 7.287589,-2.883 0.708508,0.1852 3.54593,0.4067 4.06806,0.5182 57.829286,11.1813 127.356876,12.529 177.991016,-3.1174 3.70617,-1.1686 6.46602,-1.6943 8.82817,-0.7941 1.96447,0.7355 3.628,2.1211 4.90482,3.7614 1.55408,2.0066 2.61178,4.3502 3.38663,6.7521 1.22213,3.8158 1.74684,7.819 1.95859,11.8083 0.0821,2.3543 0.087,4.715 -0.0782,7.0669 -0.17016,1.9866 -0.40453,3.9712 -0.82466,5.9225 -0.48198,2.1166 -1.10073,4.2546 -2.33238,6.0726 -2.15841,3.2594 -5.28685,5.7433 -8.55427,7.8322 -3.96118,2.4979 -8.26168,4.4209 -12.66328,6.0106 -11.03881,3.9322 -22.69188,6.057 -34.36128,6.7404 -32.03795,1.8757 -63.25003,2.8939 -96.11392,0.3953 z"
     id="jacket_cuff"
     sodipodi:nodetypes="scccccccccccccccccccccss"
     inkscape:label="jacket cuff" /><path
     id="eyebrows"
     d="m 144.10543,1043.8765 c 2.66553,-0.2268 5.35818,-0.2872 8.0225,0 2.14891,0.2684 4.30512,0.7771 6.21486,1.8251 1.57191,0.8587 2.94281,2.1283 3.77921,3.7179 0.54961,1.087 1.09703,2.295 0.94483,3.5399 -0.20587,0.7744 -0.9876,1.2 -1.73603,1.304 -1.64814,0.2456 -3.31167,-0.1097 -4.9085,-0.4952 -0.57944,-0.1096 -1.13271,-0.4146 -1.73485,-0.3439 -3.01776,0.1587 -6.03042,0.4078 -9.03283,0.7533 -2.84629,0.3363 -5.69015,0.7415 -8.47709,1.4192 -1.69332,0.4342 -3.42573,0.9154 -4.87159,1.9317 -0.6747,0.4191 -1.35648,0.8859 -2.1489,1.0397 -0.2702,0.068 -0.6295,-0.038 -0.67591,-0.3364 -0.12851,-0.7094 0.395,-1.3179 0.39036,-2.0167 0.13557,-1.1146 0.42943,-2.2076 0.83297,-3.2545 1.13759,-3.0301 3.39958,-5.6296 6.284,-7.1301 2.19066,-1.1679 4.65369,-1.7457 7.11697,-1.9627 z m 50.91442,0.8738 c 2.04188,-0.1096 4.09919,-0.1436 6.13643,0.076 2.48944,0.2721 4.95833,1.0269 7.05616,2.414 3.17584,2.0689 5.30835,5.5392 5.97693,9.2318 0.0475,0.2835 0.16902,0.5511 0.294,0.8115 0.13331,0.3704 0.34035,0.8398 0.0513,1.1928 -0.2488,0.1776 -0.57818,0.1172 -0.85322,0.057 -1.29345,-0.3364 -2.32625,-1.2563 -3.59476,-1.652 -2.40245,-0.8194 -4.94294,-1.1025 -7.45236,-1.3784 -4.45022,-0.4067 -8.92316,-0.5201 -13.38903,-0.4751 -0.27613,0 -0.5557,0 -0.81149,0.095 -1.41605,0.5253 -2.87489,0.9732 -4.3801,1.158 -0.94609,0.076 -2.01453,0.1625 -2.82848,-0.4184 -0.6224,-0.4569 -0.70327,-1.3168 -0.56037,-2.0178 0.24612,-1.4249 0.79856,-2.806 1.66721,-3.9704 1.17445,-1.5999 2.87949,-2.7417 4.70255,-3.4946 2.52947,-1.0389 5.26755,-1.4607 7.98538,-1.6312 z"
     style="vector-effect:non-scaling-stroke;fill:#ffffff;fill-opacity:1;stroke:#000000;stroke-width:1;stroke-dasharray:none;stroke-opacity:1;-inkscape-stroke:hairline"
     inkscape:label="eyebrows" /><path
     id="eyes"
     d="m 194.37591,1064.7269 c 0.79124,-0.1587 1.64572,-0.061 2.35605,0.3364 1.15542,0.6145 1.89071,1.9328 1.77786,3.2368 -0.0904,1.4959 -1.28757,2.8316 -2.77132,3.0908 -1.51352,0.3137 -3.16046,-0.5518 -3.76014,-1.9679 -0.43065,-0.9615 -0.38082,-2.1343 0.15231,-3.0475 0.46754,-0.8333 1.30516,-1.452 2.24513,-1.6486 z m -46.42363,0 c 0.85083,-0.1587 1.76711,0 2.4965,0.4675 1.12219,0.6928 1.75758,2.0773 1.54579,3.3767 -0.21536,1.573 -1.66231,2.8626 -3.25914,2.8886 -1.59926,0.087 -3.13186,-1.1047 -3.45552,-2.6615 -0.45337,-1.7892 0.84714,-3.7614 2.67237,-4.0713 z m 45.2196,-6.1387 c 2.37875,-0.4312 4.92878,0.1021 6.90152,1.5054 2.11325,1.4721 3.52101,3.9851 3.43285,6.5775 -0.0775,0.5072 -0.7805,0.7533 -1.14346,0.3798 -0.32969,-0.2721 -0.22031,-0.7339 -0.264,-1.1036 -0.16902,-1.9494 -1.33622,-3.7398 -2.95819,-4.8162 -2.28593,-1.5609 -5.42731,-1.7291 -7.88329,-0.4611 -2.01084,1.0118 -3.54956,3.0221 -3.73766,5.2879 -0.0691,0.3742 0.0703,0.8587 -0.29056,1.118 -0.40452,0.3817 -1.15424,0.038 -1.11979,-0.5257 -0.0265,-1.8229 0.67839,-3.6257 1.85625,-5.0109 1.31032,-1.5572 3.20125,-2.6007 5.20625,-2.9503 z m -46.16785,0 c 2.43444,-0.443 5.05013,0.1209 7.04316,1.5946 2.00967,1.4554 3.33903,3.8592 3.31509,6.3537 0.0189,0.4048 -0.39035,0.7589 -0.79119,0.6882 -0.37452,-0.049 -0.63319,-0.4327 -0.60459,-0.7963 0.001,-1.9525 -1.03523,-3.8226 -2.57153,-5.0048 -1.85157,-1.4555 -4.39669,-1.9453 -6.67187,-1.3603 -2.02774,0.497 -3.85175,1.8758 -4.75972,3.761 -0.42016,0.8466 -0.60801,1.7881 -0.63781,2.7273 0.0393,0.5484 -0.71036,0.9003 -1.11145,0.5235 -0.32953,-0.2306 -0.26649,-0.6622 -0.24748,-1.0069 0.11898,-2.1067 1.18278,-4.1129 2.78792,-5.4773 1.20086,-1.0337 2.68826,-1.7242 4.24942,-2.0027 z"
     inkscape:label="eyes"
     style="vector-effect:non-scaling-stroke;stroke:#000000;stroke-width:1;stroke-dasharray:none;stroke-opacity:1;-inkscape-stroke:hairline" /><path
     fill="#f9f9f9"
     stroke="#f9f9f9"
     stroke-width="0.5"
     d="m 185.50506,1078.6385 c 8.63578,-3.9775 13.63912,-4.3256 21.11054,2.0572 5.87948,5.023 17.51211,4.9315 23.84009,-3.5081 -3.7271,19.3666 -8.15658,42.4129 -29.37317,40.6985 -4.01369,-0.344 -7.85347,-1.7764 -11.39108,-3.6386 -6.63544,-3.7353 -12.12064,-8.2725 -17.14814,-13.1935 -6.70378,6.4876 -14.10225,12.2574 -22.26232,15.3501 -4.25994,1.587 -8.93677,2.3989 -13.44959,1.5209 -17.18932,-4.8567 -22.59927,-24.086 -23.32345,-41.3297 11.24636,9.6083 15.82865,12.3817 26.80194,3.7081 5.28794,-3.2953 9.56286,-5.6836 15.34758,-3.3411 -0.57092,9.9987 7.73861,16.2322 18.062,15.6525 5.08303,-0.5806 9.48741,-2.2598 11.38031,-6.9271 0.83618,-2.2292 1.10514,-4.7493 0.40529,-7.0492 z"
     id="moustache"
     style="vector-effect:non-scaling-stroke;fill:#ececec;fill-opacity:1;stroke:#000000;stroke-width:1;stroke-dasharray:none;stroke-opacity:1;-inkscape-stroke:hairline"
     sodipodi:nodetypes="cscccccccccccc"
     inkscape:label="moustache" /><path
     style="vector-effect:non-scaling-stroke;fill:#f8ba8a;fill-opacity:1;stroke:#000000;stroke-width:1;stroke-dasharray:none;stroke-opacity:1;-inkscape-stroke:hairline"
     d="m 185.50529,1078.6385 c 5.41937,19.8372 -31.35508,19.5201 -29.84783,-1.6758 2.06528,-8.1025 26.90657,-6.6138 29.84783,1.6758 z"
     id="nose"
     sodipodi:nodetypes="ccc"
     inkscape:label="nose" /><path
     id="arm_cuffs"
     style="vector-effect:non-scaling-stroke;fill:#ffffff;fill-opacity:1;stroke:#000000;stroke-width:1;stroke-dasharray:none;stroke-opacity:1;-inkscape-stroke:hairline"
     d="m 286.09687,1150.2507 c -0.60801,0.053 -1.16964,0.2986 -1.73266,0.5141 -1.98354,0.7816 -3.95166,1.6403 -5.74612,2.7998 -1.40287,0.8825 -2.72246,1.9555 -3.6744,3.3211 -1.67181,2.9608 -3.79824,5.6526 -6.15915,8.0983 -3.39374,3.5108 -7.27159,6.5427 -11.42672,9.109 -1.58734,1.0144 -3.26404,1.8777 -4.8919,2.8237 -1.98839,1.2 -3.89813,2.5666 -5.47129,4.2829 -0.85324,0.8621 -1.61123,1.8214 -2.20848,2.8781 -1.32449,2.1657 -1.91927,4.7962 -1.5089,7.3096 0.40696,2.296 1.37676,4.5331 2.96769,6.2649 0.66153,0.74 1.49694,1.2994 2.34066,1.8145 2.55587,1.3622 5.57488,1.587 8.40089,1.1464 2.39049,-0.344 4.67983,-1.177 6.86954,-2.171 2.12275,-0.9925 4.1075,-2.2454 6.01382,-3.6007 1.75047,-1.2767 3.35561,-2.7345 5.01083,-4.1291 1.62785,-1.417 3.25692,-2.8332 4.85011,-4.289 0.61749,-0.658 1.35057,-1.1913 1.97054,-1.8463 1.09951,-1.0719 2.1836,-2.16 3.26988,-3.2451 0.58309,-0.604 1.2126,-1.1641 1.74316,-1.8168 2.29765,-2.4824 4.46218,-5.105 6.30183,-7.946 1.24458,-1.979 2.38339,-4.0483 3.09862,-6.2808 0.94831,-2.7621 1.24119,-5.8224 0.36884,-8.6434 -0.51396,-1.8996 -1.52915,-3.7353 -3.18655,-4.8676 -2.07538,-1.4563 -4.73947,-1.6672 -7.20027,-1.5266 M 61.314016,1060.5502 c 3.423528,-0.2306 6.890777,1.1403 9.280281,3.5818 1.720678,1.5836 2.85583,3.8423 2.921298,6.1909 0.101101,2.3542 -0.690079,4.6344 -1.664742,6.746 -0.584308,1.2401 -1.273167,2.4291 -1.966908,3.6113 -1.167394,1.8637 -3.053447,3.0731 -4.778762,4.3676 -2.046546,1.4487 -4.087468,2.9193 -5.943724,4.6072 -0.73527,0.6921 -1.524281,1.3323 -2.164526,2.1166 -3.089111,3.1967 -5.595133,6.9108 -7.71081,10.8037 -2.074147,3.4843 -4.18127,7.0091 -7.021706,9.939 -0.712797,0.641 -1.425594,1.2922 -2.251247,1.7873 -1.75512,1.1406 -3.950429,1.3761 -5.994774,1.1747 -2.426147,-0.053 -5.02744,-0.2079 -7.100363,-1.6105 -1.723122,-1.1501 -2.61668,-3.1778 -2.914209,-5.1628 -0.356894,-2.4907 -0.05348,-5.0181 0.394994,-7.477 0.541315,-2.5153 1.157866,-5.0298 2.163305,-7.4071 1.937106,-4.5252 4.797823,-8.5904 7.937988,-12.3646 1.373073,-1.6664 2.855827,-3.2361 4.314643,-4.8242 1.59097,-1.5715 3.133081,-3.1967 4.808568,-4.6783 3.722032,-3.4665 7.654869,-6.715 11.743316,-9.7466 1.824496,-0.9834 3.880563,-1.5144 5.947378,-1.655 z"
     inkscape:label="arm cuffs" /><path
     id="belt"
     d="m 243.86722,1193.0711 c 2.42895,11.2266 1.98911,11.0115 3.34851,18.4477 -54.76114,17.2644 -126.87804,16.2436 -172.738667,1.8357 1.749255,-7.3942 4.984252,-14.6746 7.256997,-21.9267 54.59139,14.7737 110.44942,14.9615 162.13316,1.6433 z"
     sodipodi:nodetypes="ccccc"
     inkscape:label="belt"
     style="vector-effect:non-scaling-stroke;stroke:#000000;stroke-width:1;stroke-dasharray:none;stroke-opacity:1;-inkscape-stroke:hairline" /><path
     fill="#e9d70b"
     stroke="#e9d70b"
     stroke-width="0.5"
     d="m 142.20374,1196.6484 c 0.0465,-1.937 0.60299,-2.279 2.64577,-2.2844 6.86584,-0.018 26.75084,0.022 33.97361,-0.033 1.05424,-0.01 2.44288,0.656 2.4159,1.8667 -0.26391,11.8399 0.15394,24.0431 0.004,35.0265 -0.0109,0.7969 -0.88759,1.403 -1.69455,1.403 h -35.57266 c -0.93154,0 -1.76093,-0.773 -1.77051,-1.7007 -0.0403,-3.9031 -0.2587,-23.5628 -0.002,-34.2781 z m 10.34613,5.9969 c -0.83107,0 -1.45485,0.9134 -1.43023,1.7424 0.19317,6.5049 -0.0303,12.9416 0.0852,18.2824 0.0171,0.7904 0.88938,1.3881 1.68796,1.4194 6.57316,0.2578 12.42315,0.094 18.08955,-0.1785 1.12467,-0.054 1.70752,-0.4743 1.70731,-1.5207 -0.001,-5.9985 -0.0309,-11.9974 0.001,-17.9961 0.004,-0.7778 -0.50518,-1.7101 -1.2827,-1.7152 -6.58648,-0.013 -14.82738,-0.049 -18.85809,-0.034 z"
     id="buckle"
     sodipodi:nodetypes="sssssssssscsssssscc"
     inkscape:label="buckle"
     style="-inkscape-stroke:hairline;stroke-opacity:1;stroke-dasharray:none;stroke-linecap:butt;stroke-width:1;stroke:#000000;fill-opacity:1;fill:gold;vector-effect:non-scaling-stroke;" /><path
     id="boots"
     d="m 213.95143,1329.348 c 0.93112,11.4529 -13.7632,14.6495 -22.14456,14.6256 -14.43001,-0.041 -30.7709,0.6478 -29.57918,-17.477 0.59496,-9.0487 14.43193,-15.0924 21.72089,-15.2016 12.79544,-0.1918 28.96623,5.3024 30.00285,18.053 z m -84.01711,-17.9025 c 12.08385,0.068 26.1071,4.9994 26.78281,17.8953 0.66705,12.7307 -13.01693,14.5294 -22.38493,14.6592 -18.14939,0.2515 -28.52938,-0.1887 -28.95108,-14.8548 -0.2473,-8.6008 12.91137,-17.7654 24.5532,-17.6997 z"
     style="vector-effect:non-scaling-stroke;fill:#974327;fill-opacity:1;stroke:#000000;stroke-width:1;stroke-dasharray:none;stroke-opacity:1;-inkscape-stroke:hairline"
     inkscape:label="boots"
     sodipodi:nodetypes="ssssssssss" /><metadata
     id="metadata1148"><rdf:RDF><cc:Work
         rdf:about=""><cc:license
           rdf:resource="http://creativecommons.org/publicdomain/zero/1.0/" /><dc:description>Original from https://openclipart.org/detail/308933/santa-waving
Modified by Jordan Brown for SCADvent 2022.</dc:description><dc:contributor><cc:Agent><dc:title>Gordon Dylan Johnson https://openclipart.org/artist/GDJ
Jordan Brown openscad@jordan.maileater.net</dc:title></cc:Agent></dc:contributor></cc:Work><cc:License
         rdf:about="http://creativecommons.org/publicdomain/zero/1.0/"><cc:permits
           rdf:resource="http://creativecommons.org/ns#Reproduction" /><cc:permits
           rdf:resource="http://creativecommons.org/ns#Distribution" /><cc:permits
           rdf:resource="http://creativecommons.org/ns#DerivativeWorks" /></cc:License></rdf:RDF></metadata></svg>
