<?xml version="1.0" encoding="UTF-8"?>
<!DOCTYPE svg PUBLIC "-//W3C//DTD SVG 1.1//EN" "http://www.w3.org/Graphics/SVG/1.1/DTD/svg11.dtd">
<svg version="1.1" id="Layer_1" xmlns="http://www.w3.org/2000/svg" xmlns:xlink="http://www.w3.org/1999/xlink" x="0px" y="0px" viewBox="0 0 1393.084 1677.345" enable-background="new 0 0 1393.084 1677.345" xml:space="preserve">
<g>
	<path fill="#FFFFFF" stroke="#FFFFFF" stroke-width="0.5" d="M958.242,54.022c14.526-10.731,32.808-16.197,50.846-15.242   c16.708,0.731,33.09,7.019,46.057,17.566c11.233,9.085,19.953,21.263,24.824,34.873c6.625,18.291,6.196,39.038-1.232,57.023   c-5.3,12.982-14.131,24.507-25.286,33.007c-10.853,8.31-23.884,13.825-37.46,15.573c14.112,28.916,26.66,58.664,36.164,89.431   c5.675,18.55,10.273,37.489,12.646,56.769c1.987,17.415,2.479,35.399-2.255,52.439c-1.617,5.485-3.702,10.936-6.902,15.705   c-0.224-3.215,0.555-6.401,0.375-9.621c-0.088-5.193-0.853-10.454-2.947-15.237c3.137-17.195,1.724-34.863-1.004-52.015   c-5.319-31.58-15.68-62.084-27.815-91.642c-4.136-9.932-8.457-19.787-13.05-29.52c-8.135-17.278-16.66-34.469-27.401-50.305   c-9.596-14.234-20.898-27.522-34.605-37.961c-12.553-9.65-27.225-16.397-42.579-20.162c-23.323-5.787-47.519-5.899-71.402-6.25   c-12.646-0.029-25.384-0.58-37.908,1.598c-29.827,4.691-57.325,19.831-79.269,40.275c-4.491,4.194-8.797,8.593-12.811,13.245   c-3.273,3.731-6.235,7.716-8.987,11.847c-3.863-0.132-7.75-0.624-11.584,0.107c-7.94,1.383-15.364,4.759-22.5,8.398   c-16.952,8.963-32.321,20.6-46.993,32.876c-26.563,22.52-50.802,47.65-73.643,73.901c-12.008,14-23.543,28.467-33.534,43.992   c-5.655,8.939-11.063,18.194-14.341,28.302c16.241-10.527,33.587-19.256,51.348-26.914c40.456-17.195,83.488-28,127.076-33.339   c70.769-8.715,142.8-3.049,212.283,12.202c2.012,0.468,4.072,0.779,6.011,1.525c20.459,7.414,41.06,14.429,61.587,21.643   c18.345,6.513,36.705,13.089,54.431,21.17c0.107,8.223-0.974,16.728-4.993,24.03c-3.532,6.649-9.509,11.798-16.328,14.872   c-9.07,4.121-19.193,5.193-29.052,5.159c-19.339-0.399-38.327-5.022-56.565-11.194c-10.137-3.483-20.05-7.58-29.719-12.188   c-19.095-9.056-40.285-12.841-61.29-13.498c-22.534-0.706-45.03,1.724-67.267,5.183c-21.536,3.366-42.906,7.726-64.247,12.154   c-11.55,2.44-23.163,4.637-34.532,7.848c-34.766,9.713-68.041,24.064-100.396,39.925c-22.276,11.063-44.201,22.866-65.489,35.726   c-11.564-17.678-16.742-39.735-13.084-60.632c1.963-11.306,6.737-22.101,13.771-31.166c0.945-1.369,2.104-2.562,3.488-3.488   c-0.166-5.797,1.622-11.408,3.634-16.776c3.463-8.88,8.154-17.225,13.206-25.291c10.502-16.557,22.749-31.936,35.506-46.793   c25.214-28.92,52.025-56.618,81.837-80.843c14.229-11.389,29.13-22.14,45.512-30.236c9.421-4.545,19.582-8.388,30.153-8.398   c10.624-13.937,23.509-26.09,37.684-36.364c16.289-11.754,34.634-20.79,54.134-25.759c12.319-3.152,25.053-4.691,37.776-4.52   c23.577,0.19,47.266-0.141,70.677,3.064c12.665,1.793,25.257,4.696,37.094,9.626C932.108,81.505,943.165,65.04,958.242,54.022    M970.283,59.702c-13.484,7.999-24.001,20.82-29.242,35.594c-1.008,3.083-2.197,6.191-2.455,9.445   c0.404,0.185,0.823,0.365,1.252,0.55c3.079-12.086,11.779-21.799,21.419-29.281c7.258-5.539,15.14-10.303,23.499-13.98   c7.994-3.42,16.606-5.68,25.345-5.607c9.333-0.054,18.632,2.772,26.422,7.901c7.877,5.154,14.317,12.378,18.9,20.576   c4.603,8.111,7.331,17.41,7.01,26.777c-0.156,3.312-0.906,6.771-2.986,9.44c-1.948,2.475-5.363,3.541-8.403,2.85   c-3.322-0.599-5.962-2.811-8.651-4.681c-7.521-5.022-15.554-9.343-24.074-12.422c-7.696-2.708-15.909-4.525-24.103-3.668   c-4.418,0.687-8.661,2.294-12.558,4.457c-6.503,3.58-12.222,8.427-17.395,13.713c-1.077,0.916,0.658,1.676,1.203,2.319   c15.866,14.545,28.463,32.335,38.926,51.055c2.231,3.639,4.145,7.458,6.147,11.223c10.103-0.682,20.001-3.863,28.76-8.924   c12.212-7.054,22.057-17.999,27.946-30.801c8.953-19.543,7.901-43.369-2.996-61.947c-7.692-13.474-20.142-24.176-34.644-29.705   C1010.447,47.08,987.869,48.99,970.283,59.702z"/>
	<path fill="#DEDEDD" stroke="#DEDEDD" stroke-width="0.5" d="M970.283,59.702c17.585-10.712,40.163-12.621,59.322-5.115   c14.502,5.529,26.953,16.231,34.644,29.705c10.897,18.579,11.949,42.404,2.996,61.947l-0.273-0.667   c-4.082,4.891-8.637,9.401-13.82,13.123c-13.011,9.543-29.076,14.17-45.02,15.349c-1.257,0.175-2.674-0.097-3.741,0.697   c-10.463-18.72-23.06-36.51-38.926-51.055c-0.546-0.643-2.28-1.403-1.203-2.319c5.173-5.285,10.892-10.132,17.395-13.713   c3.897-2.163,8.14-3.77,12.558-4.457c8.193-0.857,16.406,0.96,24.103,3.668c8.52,3.079,16.552,7.399,24.074,12.422   c2.689,1.871,5.329,4.082,8.651,4.681c3.04,0.692,6.454-0.375,8.403-2.85c2.08-2.669,2.83-6.128,2.986-9.44   c0.322-9.367-2.406-18.667-7.01-26.777c-4.584-8.198-11.024-15.422-18.9-20.576c-7.789-5.129-17.088-7.955-26.422-7.901   c-8.739-0.073-17.351,2.187-25.345,5.607c-8.359,3.678-16.241,8.442-23.499,13.98c-9.64,7.482-18.34,17.195-21.419,29.281   c-0.429-0.185-0.848-0.365-1.252-0.55c0.258-3.254,1.447-6.362,2.455-9.445C946.283,80.521,956.8,67.7,970.283,59.702z"/>
	<path fill="#DE292C" stroke="#DE292C" stroke-width="0.5" d="M797.306,100.05c12.524-2.177,25.262-1.627,37.908-1.598   c23.884,0.351,48.079,0.463,71.402,6.25c15.354,3.765,30.026,10.512,42.579,20.162c13.708,10.439,25.009,23.728,34.605,37.961   c10.741,15.836,19.266,33.027,27.401,50.305c-9.816,11.837-23.119,20.362-37.323,25.978c-18.545,7.424-38.434,10.707-58.231,12.582   c-25.613,2.27-51.372,1.866-77.043,1.047c-23.387-0.955-46.759-2.289-70.141-3.41c-14.76-0.765-29.534-1.12-44.314-1.286   c-10.58,0.015-21.185,0.156-31.697,1.481c-35.993,4.131-70.511,17.814-100.717,37.62c-15.651,10.278-30.294,22.111-43.544,35.346   c-1.174,1.096-2.319,2.241-3.2,3.59c-17.76,7.658-35.107,16.387-51.348,26.914c3.278-10.108,8.685-19.363,14.341-28.302   c9.991-15.525,21.526-29.992,33.534-43.992c22.841-26.251,47.08-51.382,73.643-73.901c14.672-12.275,30.041-23.913,46.993-32.876   c7.136-3.639,14.56-7.015,22.5-8.398c3.834-0.731,7.721-0.239,11.584-0.107c2.752-4.131,5.714-8.115,8.987-11.847   c5.651,0.38,11.326,0.083,16.986,0.18c7.453,0.073,14.925-0.244,22.364,0.395c11.749,0.755,23.45,2.148,35.131,3.639   c12.417,1.651,24.819,3.483,37.133,5.836c4.53,0.809,8.939,2.216,13.518,2.762c10.327,1.369,20.727,2.109,31.113,2.874   c11.876,0.784,23.747,1.539,35.628,2.138c2.104,0.054,4.214,0.107,6.323-0.039c-5.553-0.058-11.058-0.877-16.587-1.232   c-11.087-1.013-22.135-2.44-33.11-4.277c-10.483-1.832-20.961-3.98-30.996-7.555c-3.488-1.223-6.864-2.743-10.074-4.555   c-6.508-3.78-13.654-6.337-20.883-8.335c-10.541-2.889-21.365-4.628-32.228-5.719c-10.152-0.984-20.372-1.388-30.557-0.852   c-3.692,0.185-7.317,0.906-10.951,1.495C739.982,119.881,767.48,104.741,797.306,100.05z"/>
	<path fill="#A92A2C" stroke="#A92A2C" stroke-width="0.5" d="M728.987,138.83c10.186-0.536,20.406-0.132,30.557,0.852   c10.863,1.091,21.687,2.83,32.228,5.719c7.229,1.997,14.375,4.555,20.883,8.335c3.21,1.812,6.586,3.332,10.074,4.555   c10.035,3.575,20.513,5.724,30.996,7.555c10.975,1.836,22.023,3.264,33.11,4.277c5.529,0.356,11.033,1.174,16.587,1.232   c-2.109,0.146-4.219,0.093-6.323,0.039c-11.881-0.599-23.752-1.354-35.628-2.138c-10.385-0.765-20.786-1.505-31.113-2.874   c-4.579-0.546-8.987-1.953-13.518-2.762c-12.314-2.353-24.717-4.184-37.133-5.836c-11.681-1.491-23.382-2.884-35.131-3.639   c-7.438-0.638-14.911-0.322-22.364-0.395c-5.66-0.097-11.335,0.2-16.986-0.18c4.014-4.652,8.32-9.051,12.811-13.245   C721.671,139.736,725.295,139.015,728.987,138.83z"/>
	<path fill="#C4C2C2" stroke="#C4C2C2" stroke-width="0.5" d="M1053.153,158.695c5.183-3.722,9.738-8.232,13.82-13.123l0.273,0.667   c-5.889,12.802-15.734,23.747-27.946,30.801c-8.758,5.061-18.657,8.242-28.76,8.924c-2.002-3.765-3.916-7.585-6.147-11.223   c1.067-0.794,2.484-0.521,3.741-0.697C1024.076,172.865,1040.142,168.237,1053.153,158.695z"/>
	<path fill="#A92A2C" stroke="#A92A2C" stroke-width="0.5" d="M973.878,239.109c14.205-5.617,27.508-14.141,37.323-25.978   c4.594,9.733,8.914,19.587,13.05,29.52c12.134,29.559,22.495,60.062,27.815,91.642c2.728,17.152,4.141,34.82,1.004,52.015   c-2.947-6.912-8.038-12.685-13.742-17.468c-9.854-8.232-21.36-14.175-32.949-19.558c-17.726-8.081-36.086-14.658-54.431-21.17   c-20.527-7.214-41.128-14.229-61.587-21.643c-1.939-0.745-3.999-1.057-6.011-1.525c-69.483-15.252-141.514-20.917-212.283-12.202   c-43.588,5.339-86.62,16.143-127.076,33.339c0.882-1.349,2.026-2.494,3.2-3.59c13.25-13.235,27.893-25.067,43.544-35.346   c30.206-19.806,64.724-33.49,100.717-37.62c10.512-1.325,21.117-1.466,31.697-1.481c14.779,0.166,29.554,0.521,44.314,1.286   c23.382,1.12,46.754,2.455,70.141,3.41c25.671,0.818,51.43,1.223,77.043-1.047C935.444,249.816,955.334,246.533,973.878,239.109z"/>
	<path fill="#CCCCCC" stroke="#CCCCCC" stroke-width="0.5" d="M1006.379,349.281c11.589,5.383,23.095,11.326,32.949,19.558   c5.704,4.784,10.795,10.556,13.742,17.468c2.095,4.784,2.859,10.044,2.947,15.237c0.18,3.22-0.599,6.406-0.375,9.621   c-0.887,2.036-0.974,4.292-1.569,6.415c-4.628,18.866-15.325,36.417-30.694,48.425c-5.388,3.887-11.253,7.2-17.629,9.143   c-9.138,2.884-19.095,2.932-28.321,0.404c-7.039-1.841-13.386-5.495-20.099-8.189c-9.314-3.931-18.822-7.375-28.399-10.605   l0.083,0.726c-0.511-1.072-1.008-2.163-1.203-3.337c-2.738-15.189-11.467-29.461-24.468-37.971   c-8.588-5.704-18.696-8.797-28.886-9.928c-8.34-0.901-16.762-0.755-25.121-0.307c-11.126,0.701-22.335,2.436-32.691,6.708   c-7.463,3.098-14.443,7.794-19.251,14.375c-23.932-3.04-48.147-4.9-72.25-3.01c-2.932,0.2-5.855,0.477-8.778,0.697   c-0.609,0.044-1.174,0.2-1.705,0.463c-3.424-6.537-9.036-11.759-15.471-15.291c-7.818-4.311-16.645-6.401-25.442-7.507   c-10.907-1.213-21.93-0.969-32.842-0.029c-10.083,0.891-20.167,3.269-29.135,8.072c-11.808,6.172-21.068,16.864-25.725,29.325   c-1.651,4.306-2.855,8.802-3.41,13.386c-0.015-0.229-0.039-0.687-0.049-0.911c-16.289,5.602-32.55,11.681-47.426,20.474   c-3.999,2.27-7.55,5.344-11.886,6.995c-4.813,1.963-10.152,2.392-15.262,1.564c-3.946-0.843-7.765-2.231-11.282-4.214   c-3.342-1.871-6.372-4.223-9.246-6.732c-0.127,0.205-0.375,0.614-0.502,0.818c0.063-0.253,0.19-0.76,0.253-1.013   c-4.014-3.878-7.662-8.15-10.736-12.816c21.287-12.86,43.213-24.663,65.489-35.726c32.355-15.861,65.63-30.211,100.396-39.925   c11.369-3.21,22.982-5.407,34.532-7.848c21.341-4.428,42.711-8.788,64.247-12.154c22.237-3.459,44.733-5.889,67.267-5.183   c21.005,0.658,42.195,4.443,61.29,13.498c9.669,4.608,19.582,8.705,29.719,12.188c18.238,6.172,37.226,10.795,56.565,11.194   c9.859,0.034,19.982-1.038,29.052-5.159c6.82-3.074,12.797-8.223,16.328-14.872   C1005.405,366.009,1006.486,357.504,1006.379,349.281z"/>
	<path fill="#FFFFFF" stroke="#FFFFFF" stroke-width="0.5" d="M187.833,390.843c4.408-1.247,9.207-1.88,13.654-0.463   c7.273,2.143,13.06,7.531,17.629,13.391c4.837,6.25,8.598,13.269,11.671,20.532c2.82,6.562,4.491,13.532,7.097,20.177   c4.686,12.305,10.96,24.502,21.024,33.275c3.269-2.655,6.644-5.173,10.01-7.701c3.814-3.079,8.442-4.881,12.996-6.566   c12.47-4.355,26.28-5.402,39.092-1.871c8.666,2.353,16.684,6.839,23.489,12.67c7.57,6.376,13.761,14.653,16.699,24.176   c2.557,7.974,2.665,16.567,1.12,24.751c-0.234,1.213-0.502,2.426-0.843,3.619c0.828,0.599,1.676,1.189,2.538,1.768   c15.315,10.351,30.455,20.971,45.6,31.57c27.493,19.232,54.904,38.575,82.241,58.021c0.146,0.107,0.429,0.317,0.57,0.424   c0.292,5.159,1.515,10.22,2.099,15.354c-41.576-29.398-83.084-58.908-124.986-87.843c-3.897-2.684-7.804-5.349-11.71-8.013   c-2.947,7.375-6.839,14.326-10.873,21.151c-4.301,7.161-10.722,12.729-17.361,17.663c-8.003,5.938-16.323,11.472-23.957,17.907   c-13.547,11.218-24.96,24.863-34.328,39.72c-4.491,6.98-8.33,14.346-12.616,21.453c-5.587,9.338-11.472,18.535-18.248,27.069   c-7.292,9.187-15.934,17.834-26.977,22.325c2.733,3.176,5.49,6.333,8.408,9.343c11.847,12.446,25.067,23.509,38.853,33.738   c31.488,23.207,65.815,42.273,100.932,59.375c29.149,14.044,58.913,26.875,89.343,37.888   c-19.841,31.721-35.424,65.908-48.922,100.747c-7.925,20.571-15.096,41.435-21.643,62.483c-9.304,29.827-17.41,60.018-24.57,90.429   c-4.316,18.194-8.15,36.505-11.774,54.85c2.109,0.614,3.8,2.099,5.821,2.932c12.412,5.787,25.574,9.752,38.78,13.279   c23.781,6.182,48.064,10.21,72.421,13.318c25.384,3.162,50.899,5.173,76.449,6.347c24.171,1.198,48.381,1.393,72.581,1.534   c54.436-0.073,108.857-1.836,163.201-4.9c47.675-2.733,95.306-6.42,142.781-11.637c23.416-2.596,46.798-5.563,70.073-9.221   c21.448-3.4,42.857-7.268,63.867-12.807c7.784-2.085,15.5-4.443,22.997-7.409c0.034-10.132-1.642-20.177-3.717-30.065   c-1.744-8.018-3.926-15.934-6.333-23.772c-2.596-8.242-5.319-16.455-8.486-24.493c-8.856-2.124-17.22-6.488-23.806-12.802   c-9.221-8.871-14.818-21.078-17.01-33.573c-1.666-10.463-0.224-21.38,4.097-31.049c6.235-14.185,17.517-25.52,30.002-34.391   c6.586-4.813,13.839-8.578,20.922-12.582c14.75-8.51,28.735-18.389,41.435-29.753c12.636-11.365,24.078-24.239,32.852-38.843   c3.512-6.81,9.07-12.324,15.184-16.84c6.445-4.827,13.596-8.583,20.839-12.042c-9.869-13.367-21.195-25.598-33.158-37.099   c-26.027-24.863-54.762-46.725-84.379-67.116c-13.25-9.094-26.753-17.819-40.48-26.178c-1.968,11.34-4.184,22.7-4.404,34.245   c-0.433,11.506,1.437,22.963,4.282,34.079c3.478,13.576,8.047,26.84,12.758,40.027c0.058,8.5-0.779,17.01-2.153,25.399   c-3.04,17.892-9.63,35.36-20.435,50.037c-9.64,13.245-22.432,24.039-36.7,32.009c-16.82,9.455-35.492,15.242-54.426,18.637   c-20.201,3.512-40.855,4.628-61.304,3.035c-7.419,14.205-18.594,26.178-31.117,36.037c-21.755,16.971-48.556,26.573-75.757,30.09   c-19.29,2.514-38.863,2.158-58.167-0.024c-26.266-3.005-52.648-9.372-75.65-22.817c-11.594-6.795-22.179-15.403-30.806-25.73   c-14.804-17.502-23.382-39.754-25.774-62.444c-0.867-9.192-1.008-18.486,0.141-27.654c0.658-4.272,1.12-8.754,3.4-12.529   c1.656-3.054,3.634-6.415,2.85-10.025c-0.955-4.228-4.218-7.38-7.331-10.156c-7.073-5.894-15.101-10.483-23.153-14.877   c-6.966-3.877-14.239-7.151-21.263-10.912c-13.099-7.204-23.314-19.227-28.677-33.144c-3.273-8.223-5.037-16.971-5.88-25.759   c-1.125-13.552-0.049-27.216,2.514-40.548c1.973-10.035,4.657-19.962,8.515-29.442c1.179-3.054,3.001-5.85,3.8-9.046   c1.427-5.305,1.827-10.834,1.968-16.304c0.268-10.624-0.57-21.248-1.666-31.804c-0.438-5.134-1.262-10.244-1.734-15.359   c-1.603-10.916-3.386-21.813-5.388-32.666c-1.759-13.493-0.224-27.737,6.143-39.9c1.544-3.605,5.159-5.617,8.388-7.502   c-7.326-2.674-14.341-7.068-18.569-13.795c-6.167-9.46-6.557-21.38-4.998-32.233c1.291-7.843,3.361-15.612,6.557-22.895   c0.127-0.205,0.375-0.614,0.502-0.818c2.874,2.509,5.904,4.862,9.246,6.732c-3.23,8.588-5.529,17.644-5.694,26.86   c-0.034,5.914,0.94,12.168,4.535,17.035c3.278,4.521,8.442,7.229,13.693,8.778c2.158,0.482,3.366,2.479,4.915,3.868   c1.164,1.028,2.075,2.406,3.434,3.186c8.948,0.132,17.653,2.806,25.696,6.605c13.469,6.391,25.642,15.262,36.783,25.116   c2.557,2.635,5.967,4.131,8.929,6.235c-9.616,4.204-20.82,4.871-30.786,1.491c-7.497-2.509-14.351-6.713-20.294-11.891   c-1.89-1.841-4.029-3.405-5.821-5.334c-2.801-3.234-5.719-6.367-8.193-9.859c-3.22-3.751-5.451-8.184-8.281-12.207   c0.365,4.267,1.247,8.476,1.778,12.724c-0.58,6.781-0.239,13.6-0.351,20.406c-0.068,1.544,0.088,3.093,0.497,4.594   c0.828,23.898,3.171,47.874,9.08,71.096c4.068,15.831,9.747,31.439,18.613,45.254c7.774,12.12,18.477,22.719,31.751,28.633   c10.059,4.715,21.268,5.88,32.223,6.586c20.25,1.335,40.801-0.487,60.306-6.211c15.461-4.535,30.241-11.535,43.33-20.961   c1.603-1.15,3.132-2.397,4.764-3.502c2.747,8.252,6.946,16.129,12.933,22.495c5.495,5.85,12.782,10.317,20.849,11.321   c8.417,1.125,16.996-1.875,23.528-7.146c10.342-8.34,16.465-20.873,19.412-33.616c2.138,1.481,3.863,3.459,5.86,5.12   c11.813,10.361,25.174,19.037,39.705,25.077c13.795,5.748,28.579,9.124,43.51,9.884c13.659,0.76,27.396-0.565,40.762-3.434   c3.025-0.721,5.831-2.129,8.632-3.454c11.925-5.86,21.979-15.052,29.861-25.662c8.768-11.788,15.096-25.213,19.923-39.038   c5.504-15.885,9.041-32.389,11.389-49.019c3.01-22.223,3.994-44.723,2.893-67.121c-1.232,1.788-2.285,3.692-3.439,5.534   c0.282-2.382,0.901-4.715,0.945-7.122c-2.056,3.488-3.551,7.283-5.855,10.634c-4.827,7.054-10.994,13.459-18.706,17.337   c-5.48,2.859-11.598,4.326-17.731,4.847c-5.354,0.838-10.731-0.2-16.017-1.008c10.186-8.218,20.922-15.802,32.311-22.261   c9.626-5.383,19.787-10.064,30.63-12.358c-0.575-1.948-1.164-3.897-1.637-5.865c3.527-2.333,7.385-4.204,10.556-7.044   c6.333-5.427,11.657-12.597,13.113-20.971c1.539-8.729-1.856-17.497-6.62-24.683c3.249-2.28,5.909-5.368,7.682-8.914   c4.896,6.878,8.875,14.628,10.181,23.046c1.262,7.346,0.156,15.033-2.894,21.823c-3.994,8.948-10.853,16.421-18.832,22.008   c0.122,0.891,1.13,0.867,1.793,1.184c5.261,1.797,9.299,6.021,12.061,10.722c3.921,6.727,5.841,14.394,7.214,21.998   c2.372,14.55,2.445,29.359,1.914,44.055c-1.344,29.943-5.563,59.673-10.536,89.207c17.039,10.04,33.577,20.917,49.833,32.179   c30.104,21.039,59.317,43.578,85.524,69.371c11.365,11.331,22.179,23.285,31.439,36.417c2.08-0.848,4.204-1.593,6.357-2.246   c12.168-1.247,25.082-0.351,36.028,5.582c8.607,4.574,15.223,12.431,18.9,21.404c4.141,9.869,5.831,20.737,4.754,31.39   c-0.21,1.992-0.482,3.985-0.794,5.972c-0.711,3.692-1.559,7.365-2.718,10.951c-3.454,10.702-8.593,20.824-14.789,30.192   c2.694,2.143,5.5,4.155,8.213,6.279c0.833,0.638,1.661,1.291,2.504,1.948c0.74,0.58,1.491,1.159,2.246,1.759   c13.995,11.009,27.557,22.564,40.597,34.688c14.502,13.596,28.443,27.912,40.358,43.87c5.845,7.94,11.199,16.328,15.037,25.443   c4.452,10.512,6.737,22.685,2.723,33.709c-0.507,1.349-1.081,2.679-1.719,3.975c-0.653,1.271-1.335,2.533-2.056,3.77   c-4.706,7.94-11.783,14.497-20.206,18.326c-10.264,4.749-21.921,5.626-33.042,4.335c-18.525-2.28-36.125-9.358-52.434-18.214   c-3.127-1.734-6.24-3.493-9.246-5.422c-1.091,8.315-2.533,17.103-7.779,23.932c-3.391,4.418-8.822,7.351-14.448,7.229   c-8.237,0.127-16.616-2.967-22.31-9.012c-6.133-6.435-9.051-15.184-10.6-23.762c-0.813-4.102-0.867-8.335-2.046-12.358   c-2.28-8.33-5.558-16.338-8.797-24.327c-3.848-9.314-8.008-18.496-12.183-27.669c-13.089,11.389-27.756,21.107-43.763,27.893   c-13.021,5.475-27.104,8.968-41.303,8.408c2.777,7.57,5.324,15.227,7.628,22.953c0.453,1.544,0.906,3.093,1.354,4.652   c0.18,0.726,0.4,1.471,0.614,2.216c3.853,13.79,6.61,27.932,7.487,42.234c9.674-3.483,20.634-3.785,30.304-0.083   c8.042,3.025,14.852,8.724,20.079,15.471c6.362,8.252,10.692,17.892,13.864,27.771c5.003,15.695,7.151,32.16,8.018,48.566   c0.336,9.684,0.356,19.392-0.321,29.067c-0.697,8.169-1.656,16.333-3.376,24.361c-1.973,8.705-4.506,17.498-9.548,24.975   c-8.836,13.406-21.643,23.621-35.019,32.214c-16.216,10.273-33.821,18.184-51.84,24.721   c-45.19,16.172-92.967,23.874-140.666,27.722c-5.022,7.156-9.859,14.453-14.828,21.653c0.244,7.049,0.589,14.097,0.969,21.141   c0.019,0.877,0.024,1.768,0.073,2.674c0.658,14.175,1.301,28.346,1.944,42.521c0.434,11.452,1.159,22.905,1.476,34.366   c0.75,0.594,1.505,1.198,2.265,1.832c13.976,11.545,24.941,27.289,28.886,45.147c1.695,7.448,1.968,15.179,1.237,22.768   c-0.443,3.532-1.091,7.054-2.163,10.458c-0.862,2.572-1.836,5.125-3.108,7.536c-3.493,6.742-8.763,12.48-15.018,16.757   c-7.088,4.881-15.223,8.042-23.518,10.196c-13.191,3.38-26.831,4.54-40.392,5.139c-11.194,0.541-22.408,0.507-33.616,0.502   c-12.992-0.005-25.993-0.317-38.95-1.32c-11.779-0.964-23.567-2.567-34.932-5.894c-8.559-2.538-16.932-6.143-24.03-11.637   c-7.321-5.617-13.04-13.386-15.861-22.198c-1.281-3.502-1.656-7.224-2.494-10.819c-0.96,8.305-3.273,16.64-8.062,23.606   c-4.477,6.693-10.839,11.974-17.907,15.758c-8.637,4.647-18.209,7.244-27.815,8.978c-13.162,2.328-26.538,2.962-39.871,3.361   c-24.259,0.287-48.61,0.584-72.761-2.065c-11.53-1.432-23.08-3.566-33.909-7.891c-11.316-4.413-21.779-11.954-27.863-22.661   c-1.315-2.431-2.475-4.94-3.371-7.546c-0.828-2.353-1.418-4.779-1.895-7.214c-2.148-12.446-0.521-25.452,4.233-37.133   c6.328-15.705,17.902-28.891,31.595-38.658c5.203-3.751,10.731-7.029,16.484-9.859c0.95-0.468,1.895-0.945,2.825-1.452   c-1.744-24.931-2.518-49.925-3.254-74.9c-0.005-1.403-0.073-2.801-0.102-4.18c-0.239-6.245-0.244-12.5-0.511-18.735   c-0.935-3.035-2.241-5.948-3.278-8.943c-44.606-4.749-89.217-11.642-132.229-24.692c-20.678-6.313-40.982-14.151-59.936-24.629   c-14.429-8.037-28.126-17.619-39.701-29.461c-2.971-2.699-4.681-6.396-6.815-9.723c-5.987-10.176-10.999-20.951-14.458-32.252   c-1.656-5.48-2.918-11.072-3.79-16.723c-0.185-1.476-0.351-2.932-0.541-4.389c-1.228-12.251-0.346-24.775,3.259-36.578   c6.333-21.268,20.766-39.778,39.267-51.893c8.817-5.743,18.618-10.229,29.042-12.017c11.686-60.856,27.011-121.074,47.076-179.729   c11.501-33.285,24.546-66.103,40.514-97.512c0.487-0.974,0.979-1.934,1.476-2.889c0.628-1.237,1.257-2.47,1.914-3.688   c3.424-6.566,7.029-13.04,10.731-19.456c-37.971-14.56-75.1-31.39-110.923-50.651c-18.321-9.913-36.276-20.532-53.53-32.213   c-25.272-17.186-49.462-36.598-68.611-60.593c-5.899,0.492-11.808-0.02-17.707-0.219c-8.963-0.516-18.106-2.153-25.973-6.688   c-6.508-3.683-11.764-9.421-15.028-16.134c-1.685-3.454-2.869-7.127-3.692-10.868c-1.607-7.365-1.603-14.964-1.15-22.451   c0.833-9.674,2.611-19.256,5.159-28.623c0.209-0.828,0.438-1.651,0.662-2.46c0.312-1.169,0.628-2.328,0.969-3.478   c2.192-7.726,5.217-15.198,8.793-22.383c-16.46-5.953-32.238-13.873-46.686-23.772c-15.51-10.653-29.476-23.747-40.266-39.218   c-9.362-13.289-16.207-28.326-20.157-44.089c-1.208-4.676-2.051-9.431-2.791-14.195c-0.034-0.209-0.102-0.624-0.136-0.833   c-0.74-5.855-1.252-11.745-1.344-17.648c0.102-9.518,4.214-18.803,10.843-25.579c6.06-6.323,13.927-10.658,22.149-13.503   c16.25-5.48,33.875-5.655,50.675-2.898c14.784,2.484,29.081,7.536,42.35,14.482c-0.083-8.242,0.887-16.806,4.886-24.152   C175.835,397.497,181.335,392.767,187.833,390.843 M183.722,407.152c-2.835,4.102-4.009,9.168-4.301,14.063   c-0.346,3.585-0.302,7.214,0.005,10.804c0.351,6.264,1.481,12.519,2.996,18.623c-12.237-9.538-26.066-17.074-40.84-21.847   c-16.333-5.285-33.865-7.575-50.919-4.988c-9.173,1.481-18.355,4.394-25.852,10.035c-5.509,4.131-9.879,10.054-11.184,16.903   c-0.848,3.839-0.414,7.789-0.141,11.667c1.374,21.321,8.228,42.321,20.084,60.13c9.601,14.604,22.281,27.021,36.461,37.177   c14.848,10.624,31.307,18.93,48.513,25.004c13.357-22.856,30.752-43.062,49.355-61.782c13.328-13.401,27.415-26.032,42.024-38.02   c-4.959-4.486-9.06-9.85-12.602-15.5c-6.372-10.244-10.624-21.618-14.219-33.081c-2.148-7.044-5.285-13.771-9.138-20.04   c-2.884-4.584-6.172-9.065-10.541-12.344c-2.635-1.934-5.914-3.566-9.27-2.859C190.01,401.501,186.094,403.722,183.722,407.152    M301.98,470.926c-8.461,0.58-16.879,2.762-24.346,6.81c-16.738,12.47-32.837,25.832-48.074,40.09   c-6.859,6.094-13.172,12.777-19.685,19.241c-5.972,6.532-12.042,12.987-17.663,19.841c-12.855,15.525-24.566,32.243-32.496,50.856   c-4.116,9.777-6.639,20.118-8.856,30.465c-1.836,10.113-3.079,20.508-1.617,30.752c1.218,8.164,4.876,16.504,11.93,21.234   c8.486,5.768,19.134,6.406,29.067,6.625c8.369,0.828,17.356-0.141,24.541-4.832c3.381-2.036,6.298-4.715,9.216-7.351   c11.628-12.051,20.255-26.548,28.745-40.879c8.661-16.012,18.92-31.288,31.566-44.435c2.621-3.225,5.85-5.86,8.861-8.705   c7.599-6.941,15.953-12.992,24.332-18.949c7.063-5.324,14.784-10.298,19.563-17.965c2.84-4.862,5.66-9.752,8.052-14.852   c3.99-8.685,7.229-18.062,6.815-27.746c-0.268-9.66-4.915-18.949-11.959-25.462C330.19,475.617,315.995,469.976,301.98,470.926    M1200.181,849.863c-2.489,0.219-4.788,1.237-7.093,2.114c-8.12,3.215-16.177,6.747-23.523,11.516   c-5.743,3.629-11.145,8.042-15.042,13.659c-6.844,12.178-15.549,23.25-25.214,33.309c-13.893,14.438-29.768,26.909-46.778,37.465   c-6.498,4.17-13.362,7.721-20.026,11.613c-8.14,4.935-15.958,10.556-22.398,17.614c-3.493,3.546-6.596,7.492-9.041,11.837   c-5.422,8.909-7.857,19.728-6.177,30.065c1.666,9.445,5.636,18.647,12.149,25.769c2.708,3.044,6.128,5.344,9.582,7.463   c10.463,5.602,22.822,6.527,34.391,4.715c9.786-1.427,19.158-4.842,28.122-8.929c8.69-4.082,16.815-9.236,24.619-14.809   c7.166-5.251,13.737-11.248,20.513-16.986c6.664-5.826,13.333-11.652,19.855-17.639c2.528-2.708,5.529-4.9,8.067-7.594   c4.501-4.409,8.939-8.885,13.386-13.347c2.387-2.484,4.964-4.788,7.136-7.473c9.406-10.21,18.267-20.995,25.798-32.681   c5.095-8.14,9.757-16.65,12.685-25.832c3.882-11.36,5.081-23.947,1.51-35.55c-2.104-7.813-6.26-15.364-13.045-20.021   C1221.161,850.151,1210.255,849.284,1200.181,849.863 M592.14,914.407c0.37,1.145,1.15,2.099,1.812,3.098   c6.859,10.483,14.39,20.542,22.773,29.856c15.719,17.546,34.854,32.623,57.12,40.84c14.131,5.319,29.364,7.599,44.435,6.893   c23.596-1.081,46.389-9.158,66.901-20.566c17.483-9.747,33.592-21.877,48.167-35.579c1.125-1.135,2.489-2.08,3.278-3.502   c-1.666,0.823-2.874,2.275-4.335,3.386c-7.589,6.24-15.734,11.808-24.298,16.616c-18.652,10.468-39.608,16.85-60.963,18.267   c-28.278,2.012-56.623-4.257-82.67-15.033C638.188,947.78,613.841,932.616,592.14,914.407 M1180.116,1008.485   c-6.172,5.748-12.665,11.16-18.842,16.893c1.174,2.163,2.134,4.433,3.181,6.669c4.248,9.25,8.354,18.574,12.168,28.014   c3.361,8.53,6.761,17.113,8.656,26.11c0.75,4.983,1.164,10.044,2.626,14.901c1.266,4.394,3.161,8.744,6.352,12.1   c2.913,3.03,6.961,4.876,11.136,5.271c1.91,0.234,3.98,0.463,5.763-0.468c2.338-1.203,3.751-3.58,4.784-5.909   c1.89-4.516,2.66-9.392,3.249-14.219c0.697-6.79,0.833-13.635,0.565-20.454c6.001,4.827,12.383,9.168,18.983,13.142   c14.77,8.768,30.669,16.007,47.568,19.49c10.746,2.08,22.305,2.621,32.637-1.573c7.711-3.025,14.044-9.075,17.848-16.387   c2.713-4.779,3.717-10.454,2.986-15.885c-0.619-5.461-2.421-10.712-4.691-15.685c-3.717-8.037-8.656-15.437-13.961-22.5   c-11.394-14.916-24.585-28.356-38.278-41.157c-13.493-12.534-27.591-24.415-42.102-35.755c-3.176-2.479-6.406-4.891-9.587-7.356   C1216.31,973.87,1198.52,991.616,1180.116,1008.485 M872.693,1398.339c-51.859,2.64-103.742,5.129-155.665,5.743   c3.463,17.595,7.492,35.092,10.98,52.687c2.611,0.341,5.266,0.102,7.891,0.365c26.451,0.887,52.897,1.866,79.352,2.742   c25.413,0.96,50.841,1.69,76.254,2.723c-0.945-15.637-1.812-31.273-2.869-46.9c4.043-6.069,8.413-11.954,12.198-18.184   c0.112-0.058,0.341-0.18,0.458-0.244l-0.156-0.205c-0.804-0.166-1.783-0.273-2.45,0.253l-0.083-0.244   C889.967,1397.399,881.33,1397.93,872.693,1398.339 M530.889,1398.407c7.039,18.52,13.98,37.075,21.01,55.595   c47.84,2.411,95.685,4.72,143.521,7.136c4.141-18.964,8.257-37.932,12.422-56.886   C648.817,1404.866,589.699,1403.805,530.889,1398.407 M712.211,1437.567c-2.665,11.793-5.081,23.65-7.809,35.428   c-2.689-0.146-5.373-0.346-8.057-0.453c-50.817-2.494-101.628-5.047-152.445-7.526c-3.312-8.783-6.639-17.566-9.923-26.353   c-0.146,4.374,0.258,8.754,0.351,13.133c0.244,6.81,0.443,13.63,0.833,20.435c0.287,9.099,0.887,18.189,1.364,27.289   c30.47-10.707,64.388-11.286,95.223-1.71c17.809,5.602,34.659,14.882,48.021,28.024c11.915,11.808,20.956,27.094,23.358,43.856   c0.555-0.667,0.507-1.603,0.716-2.372c3.191-16.835,6.649-33.621,9.762-50.476c1.213,7.56,1.846,15.208,2.952,22.783   c11.326-16.923,28.472-29.286,47.032-37.231c21.555-9.177,45.371-12.577,68.679-10.951c21.58,1.598,43.062,7.585,61.631,18.861   c-0.351-9.177-1.057-18.355-1.081-27.532c-0.117-0.029-0.346-0.083-0.463-0.112l0.239-0.117c-0.083-2.864-0.278-5.714-0.317-8.564   c-57.826-2.09-115.653-4.033-173.484-6.07c-1.953-9.645-4.092-19.246-6.05-28.886   C712.547,1438.507,712.742,1437.849,712.211,1437.567 M580.522,1502.564c-23.358,0.96-46.808,7.638-66.195,20.927   c-13.357,9.187-24.756,21.945-30.172,37.406c-3.493,10.122-4.603,21.341-1.773,31.76c2.173,8.072,7.599,15.023,14.497,19.651   c8.286,5.617,18.028,8.583,27.742,10.605c12.29,2.465,24.829,3.463,37.338,3.955c12.972,0.565,25.959,0.521,38.941,0.448   c11.209-0.146,22.432-0.463,33.597-1.539c10.916-1.115,21.916-2.83,32.17-6.893c7.823-3.118,15.257-8.004,19.889-15.189   c5.246-7.984,6.605-17.892,5.982-27.255c-0.726-10.351-4.292-20.406-9.874-29.12c-8.827-13.795-22.101-24.273-36.641-31.546   C625.829,1505.764,602.969,1501.565,580.522,1502.564 M814.394,1502.578c-23.09,1.028-46.252,7.628-65.464,20.703   c-13.396,9.153-24.872,21.852-30.377,37.304c-3.463,9.859-4.642,20.756-2.173,30.991c1.836,7.701,6.547,14.57,12.85,19.319   c7.209,5.514,15.9,8.676,24.619,10.877c13.391,3.254,27.181,4.423,40.918,5.037c13.795,0.623,27.61,0.594,41.415,0.497   c12.534-0.19,25.082-0.585,37.538-2.061c10.098-1.305,20.269-3.195,29.622-7.38c7.029-3.147,13.571-7.891,17.717-14.487   c5.061-7.926,6.391-17.668,5.777-26.894c-0.74-10.717-4.525-21.112-10.449-30.036c-8.773-13.303-21.706-23.44-35.838-30.557   C860.169,1505.73,837.065,1501.516,814.394,1502.578z"/>
	<path fill="#DE292C" stroke="#DE292C" stroke-width="0.5" d="M183.722,407.152c2.372-3.429,6.289-5.651,10.429-6.055   c3.356-0.706,6.635,0.926,9.27,2.859c4.369,3.278,7.658,7.76,10.541,12.344c3.853,6.269,6.99,12.996,9.138,20.04   c3.595,11.462,7.848,22.836,14.219,33.081c3.541,5.651,7.643,11.014,12.602,15.5c-14.609,11.988-28.696,24.619-42.024,38.02   c-18.603,18.72-35.998,38.926-49.355,61.782c-17.205-6.074-33.665-14.38-48.513-25.004c-14.18-10.156-26.86-22.573-36.461-37.177   c-11.857-17.809-18.71-38.809-20.084-60.13c-0.273-3.877-0.706-7.828,0.141-11.667c1.305-6.849,5.675-12.772,11.184-16.903   c7.497-5.641,16.679-8.554,25.852-10.035c17.054-2.587,34.586-0.297,50.919,4.988c14.774,4.774,28.604,12.31,40.84,21.847   c-1.515-6.104-2.645-12.358-2.996-18.623c0.984-2.251,0.546-4.74,0.653-7.112c0.073-1.276-0.156-2.528-0.658-3.692   C179.712,416.319,180.886,411.253,183.722,407.152z"/>
	<path fill="#FFFFFF" stroke="#FFFFFF" stroke-width="0.5" d="M640.906,402.348c10.912-0.94,21.935-1.184,32.842,0.029   c8.797,1.106,17.624,3.196,25.442,7.507c6.435,3.532,12.047,8.754,15.471,15.291c2.25,4.472,4.491,9.44,3.868,14.56   c-0.843,3.186-4.043,4.935-7.107,5.363c-6.747,1.018-13.557-0.448-20.094-2.036c-2.372-0.458-4.637-1.705-7.102-1.403   c-12.354,0.662-24.687,1.676-36.978,3.098c-11.652,1.374-23.294,3.049-34.703,5.836c-6.932,1.788-14.024,3.765-19.943,7.945   c-2.762,1.724-5.553,3.644-8.797,4.277c-1.106,0.273-2.577-0.102-2.767-1.388c-0.526-2.918,1.617-5.422,1.598-8.296   c0.555-4.584,1.758-9.08,3.41-13.386c4.657-12.461,13.917-23.153,25.725-29.325C620.739,405.617,630.822,403.24,640.906,402.348z"/>
	<path fill="#FFFFFF" stroke="#FFFFFF" stroke-width="0.5" d="M849.336,405.943c8.359-0.448,16.781-0.594,25.121,0.307   c10.191,1.13,20.298,4.223,28.886,9.928c13.001,8.51,21.731,22.783,24.468,37.971c0.195,1.174,0.692,2.265,1.203,3.337   c0.546,1.53,1.393,3.454,0.21,4.905c-1.018,0.736-2.367,0.482-3.493,0.239c-5.295-1.388-9.523-5.168-14.716-6.795   c-9.835-3.371-20.235-4.535-30.508-5.67c-18.218-1.671-36.529-2.138-54.811-1.953c-1.13-0.039-2.275-0.024-3.322,0.399   c-5.797,2.163-11.769,4.004-17.931,4.764c-3.873,0.307-8.247,0.677-11.579-1.72c-2.548-1.88-2.879-5.417-2.294-8.301   c1.008-5.86,3.269-11.54,6.825-16.328c4.808-6.581,11.788-11.277,19.251-14.375C827.001,408.379,838.21,406.645,849.336,405.943z"/>
	<path fill="#DB1317" stroke="#DB1317" stroke-width="0.5" d="M179.42,421.215c0.502,1.164,0.731,2.416,0.658,3.692   c-0.107,2.372,0.331,4.861-0.653,7.112C179.118,428.429,179.074,424.8,179.42,421.215z"/>
	<path fill="#D4996B" stroke="#D4996B" stroke-width="0.5" d="M725.144,424.016c24.103-1.89,48.318-0.029,72.25,3.01   c-3.556,4.788-5.816,10.468-6.825,16.328c-10.083-1.573-20.235-2.694-30.372-3.882c-13.844-1.549-27.82-0.95-41.669,0.263   c0.624-5.12-1.617-10.088-3.868-14.56c0.531-0.263,1.096-0.419,1.705-0.463C719.289,424.493,722.211,424.215,725.144,424.016z"/>
	<path fill="#F8BA8A" stroke="#F8BA8A" stroke-width="0.5" d="M718.529,439.735c13.849-1.213,27.824-1.812,41.669-0.263   c10.137,1.189,20.289,2.309,30.372,3.882c-0.584,2.884-0.253,6.42,2.294,8.301c3.332,2.397,7.706,2.026,11.579,1.72   c6.162-0.76,12.134-2.601,17.931-4.764c1.047-0.424,2.192-0.438,3.322-0.399c3.999,1.164,8.208,1.379,12.285,2.221   c22.87,3.795,45.668,8.047,68.304,13.06c16.733,3.809,33.519,7.701,49.657,13.63c8.076,2.816,16.397,5.032,24.892,6.143   c6.605,0.882,13.362,1.125,19.953-0.02c4.847-0.784,9.611-2.436,13.659-5.261c4.764,7.185,8.159,15.953,6.62,24.683   c-1.456,8.374-6.781,15.544-13.113,20.971c-3.171,2.84-7.029,4.71-10.556,7.044c0.472,1.968,1.062,3.917,1.637,5.865   c-10.843,2.294-21.005,6.976-30.63,12.358c-11.389,6.459-22.125,14.044-32.311,22.261c-14.219-2.669-27.435-9.236-39.286-17.381   c-5.811-3.887-10.863-8.856-17.093-12.11c-8.51-4.691-18.223-7.088-27.927-7.127c-14.429-0.156-28.755,3.941-41.401,10.775   c2.864,9.46,1.763,19.826-1.661,28.994c-4.93,4.915-10.897,8.637-17.229,11.491c-10.215,4.618-21.141,7.638-32.267,8.983   c-11.004,1.31-22.354,0.867-32.988-2.436c-7.585-2.309-14.682-6.279-20.449-11.725c-7.76-7.273-12.894-16.991-15.695-27.172   c-0.58-2.07-0.779-4.257-1.783-6.187c-0.248-2.942-0.136-5.899-0.117-8.841c-6.196-1.924-12.577-3.58-19.11-3.585   c-7.024-0.054-13.898,1.905-20.313,4.633c-8.184,3.488-15.851,8.038-23.406,12.694c-8.047,5.017-15.934,10.293-23.772,15.622   c-3.955,2.704-8.096,5.193-12.573,6.927c-2.962-2.104-6.372-3.6-8.929-6.235c-11.141-9.854-23.314-18.725-36.783-25.116   c-8.042-3.799-16.747-6.474-25.696-6.605c-1.359-0.779-2.27-2.158-3.434-3.186c-1.549-1.388-2.757-3.385-4.915-3.868   c-5.251-1.549-10.415-4.257-13.693-8.778c-3.595-4.866-4.569-11.121-4.535-17.035c0.166-9.216,2.465-18.272,5.694-26.86   c3.517,1.983,7.336,3.371,11.282,4.214c3.22,2.733,7.044,4.813,11.072,6.074c3.629,1.228,7.219-0.619,10.668-1.573   c50.773-16.202,101.926-31.819,154.467-41.215c2.372-0.468,4.822-0.614,7.107-1.476c6.537,1.588,13.347,3.054,20.094,2.036   C714.486,444.67,717.686,442.921,718.529,439.735 M652.772,462.815c-6.391,1.145-12.48,3.985-17.395,8.237   c-6.571,5.612-10.926,13.863-11.413,22.529c-0.078,1.418-0.336,3.196,1.013,4.141c1.642,1.549,4.71,0.102,4.55-2.153   c0.122-3.863,0.891-7.736,2.611-11.218c3.717-7.755,11.184-13.425,19.485-15.471c9.314-2.406,19.733-0.39,27.313,5.597   c6.289,4.861,10.532,12.553,10.527,20.586c-0.117,1.495,0.94,3.064,2.475,3.273c1.642,0.292,3.312-1.164,3.239-2.83   c0.097-10.259-5.344-20.147-13.571-26.134C673.445,463.317,662.738,460.993,652.772,462.815 M841.771,462.81   c-8.208,1.437-15.948,5.729-21.312,12.134c-4.823,5.699-7.701,13.113-7.599,20.61c-0.141,2.255,2.928,3.731,4.584,2.163   c1.476-1.067,0.906-3.064,1.189-4.598c0.77-9.319,7.068-17.59,15.301-21.75c10.054-5.217,22.914-4.525,32.272,1.895   c6.64,4.428,11.418,11.793,12.11,19.811c0.18,1.52-0.268,3.42,1.081,4.54c1.486,1.539,4.365,0.526,4.681-1.559   c0.36-10.663-5.402-21-14.053-27.055C861.947,463.229,851.508,461.037,841.771,462.81 M993.558,485.116   c-0.799,13.04-1.549,26.085-2.353,39.131c4.37-2.246,8.52-4.91,12.48-7.813c4.131-3.098,8.179-6.537,10.916-10.98   c1.671-2.718,2.562-6.264,1.077-9.255c-1.807-3.649-5.587-5.685-9.143-7.292C1002.365,487.171,997.996,485.905,993.558,485.116    M502.115,493.216c-2.942,1.968-5.548,4.993-5.748,8.676c-0.224,4.482,2.265,8.515,4.959,11.891   c4.55,5.495,10.195,9.986,16.143,13.883c-0.643-13.289-1.276-26.577-1.987-39.861C510.81,488.969,506.148,490.537,502.115,493.216    M656.654,488.058c-7.472,1.276-12.797,9.387-10.941,16.747c1.325,6.401,7.599,11.306,14.146,10.946   c6.537-0.107,12.461-5.412,13.342-11.881c0.867-5.344-1.734-11.038-6.328-13.888C663.888,488.024,660.137,487.4,656.654,488.058    M846.7,488.106c-3.848,0.809-7.278,3.351-9.192,6.781c-2.182,3.756-2.387,8.578-0.624,12.534   c2.455,5.826,9.197,9.392,15.393,8.096c6.074-1.067,10.975-6.562,11.345-12.714c0.463-5.363-2.548-10.785-7.278-13.313   C853.437,487.858,849.94,487.454,846.7,488.106 M790.087,531.758c-1.5,0.887-2.25,2.596-2.611,4.228   c-1.822,9.051-6.956,17.58-14.619,22.846c-7.585,5.388-17.152,7.239-26.31,6.966c-4.15-0.974-8.578-2.967-12.821-1.242   c-3.04,1.257-3.814,5.008-3.273,7.945c0.399,1.822,0.891,3.77,2.124,5.227c2.255,1.724,5.056,2.538,7.706,3.449   c10.517,2.952,21.891,3.921,32.53,1.033c7.93-2.09,15.164-7.292,19.051-14.594c4.18-7.526,5.125-16.358,4.91-24.829   c0.068-2.928-1.559-5.466-2.83-7.974C793.107,533.419,791.914,531.65,790.087,531.758z"/>
	<path fill="#D4996B" stroke="#D4996B" stroke-width="0.5" d="M647.248,444.757c12.29-1.422,24.624-2.436,36.978-3.098   c2.465-0.302,4.73,0.945,7.102,1.403c-2.285,0.862-4.735,1.008-7.107,1.476c-52.541,9.397-103.694,25.014-154.467,41.215   c-3.449,0.955-7.039,2.801-10.668,1.573c-4.029-1.262-7.852-3.342-11.072-6.074c5.11,0.828,10.449,0.399,15.262-1.564   c4.335-1.651,7.886-4.725,11.886-6.995c14.877-8.793,31.137-14.872,47.426-20.474c0.01,0.224,0.034,0.682,0.049,0.911   c0.02,2.874-2.124,5.378-1.598,8.296c0.19,1.286,1.661,1.661,2.767,1.388c3.244-0.633,6.035-2.552,8.797-4.277   c5.919-4.18,13.011-6.157,19.943-7.945C623.954,447.807,635.596,446.131,647.248,444.757z"/>
	<path fill="#D4996B" stroke="#D4996B" stroke-width="0.5" d="M825.696,448.211c18.282-0.185,36.593,0.283,54.811,1.953   c10.273,1.135,20.673,2.299,30.508,5.67c5.193,1.627,9.421,5.407,14.716,6.795c1.125,0.244,2.475,0.497,3.493-0.239   c1.184-1.452,0.336-3.376-0.21-4.905l-0.083-0.726c9.577,3.23,19.085,6.674,28.399,10.605c6.713,2.694,13.06,6.347,20.099,8.189   c9.226,2.528,19.183,2.479,28.321-0.404c6.376-1.944,12.241-5.256,17.629-9.143c-0.36,1.042-0.74,2.085-1.252,3.064   c-1.773,3.546-4.433,6.635-7.682,8.914c-4.048,2.825-8.812,4.477-13.659,5.261c-6.591,1.145-13.347,0.901-19.953,0.02   c-8.495-1.111-16.815-3.327-24.892-6.143c-16.138-5.928-32.925-9.82-49.657-13.63c-22.637-5.012-45.434-9.265-68.304-13.06   C833.904,449.59,829.695,449.375,825.696,448.211z"/>
	<path stroke="#000000" stroke-width="0.5" d="M652.772,462.815c9.966-1.822,20.674,0.502,28.833,6.557   c8.227,5.987,13.669,15.875,13.571,26.134c0.073,1.666-1.598,3.122-3.239,2.83c-1.534-0.209-2.592-1.778-2.475-3.273   c0.005-8.033-4.238-15.724-10.527-20.586c-7.58-5.987-17.999-8.003-27.313-5.597c-8.301,2.046-15.768,7.716-19.485,15.471   c-1.72,3.483-2.489,7.356-2.611,11.218c0.161,2.255-2.908,3.702-4.55,2.153c-1.349-0.945-1.091-2.723-1.013-4.141   c0.487-8.666,4.842-16.918,11.413-22.529C640.292,466.8,646.381,463.96,652.772,462.815z"/>
	<path stroke="#000000" stroke-width="0.5" d="M841.771,462.81c9.738-1.773,20.177,0.419,28.253,6.191   c8.651,6.055,14.414,16.392,14.053,27.055c-0.317,2.085-3.195,3.098-4.681,1.559c-1.349-1.12-0.901-3.02-1.081-4.54   c-0.692-8.018-5.47-15.383-12.11-19.811c-9.358-6.42-22.218-7.112-32.272-1.895c-8.232,4.16-14.531,12.431-15.301,21.75   c-0.283,1.534,0.287,3.532-1.189,4.598c-1.656,1.569-4.725,0.093-4.584-2.163c-0.102-7.497,2.777-14.911,7.599-20.61   C825.822,468.539,833.563,464.247,841.771,462.81z"/>
	<path fill="#F2F2F2" stroke="#F2F2F2" stroke-width="0.5" d="M301.98,470.926c14.015-0.95,28.209,4.691,37.991,14.735   c7.044,6.513,11.691,15.802,11.959,25.462c0.414,9.684-2.825,19.061-6.815,27.746c-2.392,5.1-5.212,9.991-8.052,14.852   c-4.779,7.667-12.5,12.641-19.563,17.965c-8.378,5.958-16.733,12.008-24.332,18.949c-3.01,2.845-6.24,5.48-8.861,8.705   c-12.646,13.147-22.905,28.424-31.566,44.435c-8.491,14.331-17.117,28.828-28.745,40.879c-2.918,2.635-5.836,5.315-9.216,7.351   c-7.185,4.691-16.172,5.66-24.541,4.832c-9.932-0.219-20.581-0.857-29.067-6.625c-7.054-4.73-10.712-13.07-11.93-21.234   c-1.461-10.244-0.219-20.639,1.617-30.752c2.216-10.346,4.74-20.688,8.856-30.465c7.93-18.613,19.641-35.331,32.496-50.856   c5.621-6.854,11.691-13.308,17.663-19.841c6.513-6.464,12.826-13.147,19.685-19.241c15.237-14.258,31.337-27.62,48.074-40.09   C285.102,473.688,293.519,471.505,301.98,470.926z"/>
	<path fill="#D88957" stroke="#D88957" stroke-width="0.5" d="M993.558,485.116c4.438,0.789,8.807,2.056,12.977,3.79   c3.556,1.608,7.336,3.644,9.143,7.292c1.486,2.991,0.594,6.537-1.077,9.255c-2.738,4.443-6.786,7.882-10.916,10.98   c-3.96,2.903-8.111,5.568-12.48,7.813C992.009,511.201,992.759,498.156,993.558,485.116z"/>
	<path fill="#D88957" stroke="#D88957" stroke-width="0.5" d="M502.115,493.216c4.033-2.679,8.695-4.248,13.367-5.412   c0.711,13.284,1.344,26.573,1.987,39.861c-5.948-3.897-11.593-8.388-16.143-13.883c-2.694-3.376-5.183-7.409-4.959-11.891   C496.566,498.209,499.172,495.184,502.115,493.216z"/>
	<path stroke="#000000" stroke-width="0.5" d="M656.654,488.058c3.483-0.658,7.234-0.034,10.22,1.924   c4.594,2.85,7.195,8.544,6.328,13.888c-0.882,6.469-6.805,11.774-13.342,11.881c-6.547,0.36-12.821-4.545-14.146-10.946   C643.858,497.445,649.182,489.334,656.654,488.058z"/>
	<path stroke="#000000" stroke-width="0.5" d="M846.7,488.106c3.239-0.653,6.737-0.248,9.645,1.383   c4.73,2.528,7.74,7.95,7.278,13.313c-0.37,6.152-5.271,11.647-11.345,12.714c-6.196,1.296-12.938-2.27-15.393-8.096   c-1.763-3.955-1.559-8.778,0.624-12.534C839.423,491.458,842.852,488.915,846.7,488.106z"/>
	<path opacity="0.11" stroke="#000000" stroke-width="0.5" enable-background="new    " d="M361.473,526.833   c0.341-1.193,0.609-2.406,0.843-3.619c1.593,0.93,2.085,2.762,2.387,4.472c-0.17,0.229-0.521,0.687-0.692,0.916   C363.148,528.021,362.301,527.432,361.473,526.833z"/>
	<path fill="#F69E78" stroke="#F69E78" stroke-width="0.5" d="M790.087,531.758c1.827-0.107,3.02,1.661,3.858,3.054   c1.271,2.509,2.898,5.047,2.83,7.974c0.214,8.471-0.731,17.303-4.91,24.829c-3.887,7.302-11.121,12.505-19.051,14.594   c-10.639,2.889-22.013,1.919-32.53-1.033c-2.65-0.911-5.451-1.724-7.706-3.449c-1.232-1.456-1.724-3.405-2.124-5.227   c-0.541-2.937,0.234-6.688,3.273-7.945c4.243-1.724,8.671,0.268,12.821,1.242c9.158,0.273,18.725-1.578,26.31-6.966   c7.662-5.266,12.797-13.795,14.619-22.846C787.836,534.354,788.587,532.644,790.087,531.758z"/>
	<path fill="#F9F9F9" stroke="#F9F9F9" stroke-width="0.5" d="M810.385,545.324c12.646-6.834,26.972-10.931,41.401-10.775   c9.703,0.039,19.417,2.436,27.927,7.127c6.23,3.254,11.282,8.223,17.093,12.11c11.852,8.145,25.067,14.711,39.286,17.381   c5.285,0.809,10.663,1.846,16.017,1.008c6.133-0.521,12.251-1.987,17.731-4.847c7.711-3.878,13.878-10.283,18.706-17.337   c2.304-3.351,3.8-7.146,5.855-10.634c-0.044,2.406-0.663,4.74-0.945,7.122c-1.939,13.669-4.905,27.186-8.359,40.548   c-4.058,15.33-9.031,30.44-15.359,44.986c-6.094,13.976-13.459,27.483-22.836,39.545c-8.096,10.371-17.848,19.646-29.393,26.085   c-13.074,7.385-28.424,10.488-43.354,9.104c-16.431-1.408-32.15-7.307-46.632-14.964c-10.892-5.777-21.165-12.651-31.035-20.026   c-3.727-2.869-7.424-5.768-11.058-8.749c-9.747-8.072-19.1-16.606-28.107-25.491c-9.952,10.4-20.863,19.85-32.165,28.755   c-3.77,2.903-7.599,5.733-11.467,8.51c-14.809,10.337-30.548,19.539-47.504,25.871c-17.439,6.527-36.593,9.908-55.059,6.255   c-14.955-2.879-28.706-10.688-39.52-21.312c-12.188-11.813-21.17-26.514-28.282-41.824c-11.896-25.988-18.857-53.925-23.908-81.968   c-0.585-2.967-0.872-5.987-1.607-8.924c-0.55,7.239-0.102,14.516-0.239,21.765c-0.409-1.5-0.565-3.049-0.497-4.594   c0.112-6.805-0.229-13.625,0.351-20.406c-0.531-4.248-1.413-8.456-1.778-12.724c2.83,4.024,5.061,8.457,8.281,12.207   c2.475,3.493,5.392,6.625,8.193,9.859c1.793,1.929,3.931,3.493,5.821,5.334c5.943,5.178,12.797,9.382,20.294,11.891   c9.966,3.381,21.17,2.713,30.786-1.491c4.477-1.734,8.617-4.223,12.573-6.927c7.838-5.329,15.724-10.605,23.772-15.622   c7.555-4.657,15.223-9.207,23.406-12.694c6.415-2.728,13.289-4.686,20.313-4.633c6.532,0.005,12.914,1.661,19.11,3.585   c-0.019,2.942-0.132,5.899,0.117,8.841c0.697,9.392,3.166,18.735,7.726,27.011c4.024,7.336,9.854,13.678,16.884,18.233   c7.054,4.623,15.159,7.453,23.421,8.978c8.495,1.554,17.186,1.832,25.793,1.315c10.634-0.75,21.448-3.152,30.523-8.978   c7.244-4.589,12.953-11.52,16.065-19.514C812.149,565.15,813.25,554.784,810.385,545.324z"/>
	<path fill="#C22527" stroke="#C22527" stroke-width="0.5" d="M346.951,559.265c4.033-6.825,7.925-13.776,10.873-21.151   c3.907,2.665,7.813,5.329,11.71,8.013c-2.08,8.866-7.935,16.114-13.854,22.768c-12.003,12.831-26.061,23.484-39.988,34.118   c-5.899,4.745-12.383,8.963-17.117,14.964c-6.031,7.409-10.858,15.69-15.437,24.039c-7.122,13.06-13.294,26.612-19.144,40.28   c-1.325,3.088-2.621,6.24-4.676,8.934c-4.847,6.454-11.511,11.272-18.501,15.164c-5.992,3.473-12.5,5.889-18.944,8.349   c-2.918-3.01-5.675-6.167-8.408-9.343c11.043-4.491,19.685-13.138,26.977-22.325c6.776-8.534,12.66-17.731,18.248-27.069   c4.287-7.107,8.125-14.472,12.616-21.453c9.367-14.857,20.781-28.502,34.328-39.72c7.633-6.435,15.953-11.969,23.957-17.907   C336.23,571.994,342.65,566.426,346.951,559.265z"/>
	<path fill="#CCCCCC" stroke="#CCCCCC" stroke-width="0.5" d="M993.456,546.478c1.154-1.841,2.207-3.746,3.439-5.534   c1.101,22.398,0.117,44.898-2.893,67.121c-2.348,16.63-5.884,33.134-11.389,49.019c-4.827,13.825-11.155,27.25-19.923,39.038   c-7.882,10.61-17.936,19.802-29.861,25.662c-2.801,1.325-5.607,2.733-8.632,3.454c-13.367,2.869-27.103,4.194-40.762,3.434   c-14.93-0.76-29.714-4.136-43.51-9.884c-14.531-6.04-27.893-14.716-39.705-25.077c-1.997-1.661-3.722-3.639-5.86-5.12l0.029-0.141   c1.271-5.475,1.871-11.082,2.1-16.694c9.869,7.375,20.143,14.248,31.035,20.026c14.482,7.658,30.202,13.557,46.632,14.964   c14.93,1.383,30.28-1.719,43.354-9.104c11.545-6.44,21.297-15.715,29.393-26.085c9.377-12.061,16.742-25.569,22.836-39.545   c6.328-14.545,11.301-29.656,15.359-44.986C988.551,573.665,991.517,560.147,993.456,546.478z"/>
	<path fill="#DE292C" stroke="#DE292C" stroke-width="0.5" d="M369.534,546.128c41.902,28.935,83.41,58.445,124.986,87.843   l0.034,0.205c1.496,9.747,2.567,19.563,3.064,29.408c0.024,1.252,0.239,2.499,0.633,3.697c-0.141,5.47-0.541,10.999-1.968,16.304   c-0.799,3.195-2.621,5.992-3.8,9.046c-3.858,9.479-6.542,19.407-8.515,29.442c-2.562,13.333-3.639,26.996-2.514,40.548   c-0.906,3.127-0.39,6.406-0.341,9.611c0.585,17.395,5.081,35.331,16.134,49.126c4.9,6.157,11.014,11.316,17.785,15.301   c4.204,2.411,8.646,4.355,12.948,6.576c6.995,3.614,13.98,7.278,20.683,11.423c5.841,3.683,11.71,7.55,16.246,12.836   c-2.28,3.775-2.743,8.257-3.4,12.529c-1.15,9.168-1.008,18.462-0.141,27.654c-0.434,0.887-0.75,1.841-0.662,2.859   c0.088,17.405,3.653,34.873,10.941,50.709c5.475,11.939,13.079,22.914,22.486,32.092c11.749,11.749,26.188,20.557,41.464,26.953   l0.122,0.049c-1.632,1.413-2.689,3.478-2.596,5.665c-0.005,9.465,0.005,18.93,0,28.394c-57.656-1.9-115.024-10.01-171.248-22.797   c-27.474-6.289-54.723-13.625-81.437-22.622c6.547-21.049,13.717-41.912,21.643-62.483c13.498-34.839,29.081-69.025,48.922-100.747   c-30.431-11.014-60.194-23.845-89.343-37.888c-35.117-17.103-69.444-36.169-100.932-59.375   c-13.786-10.23-27.006-21.292-38.853-33.738c6.445-2.46,12.953-4.876,18.944-8.349c6.99-3.892,13.654-8.71,18.501-15.164   c2.056-2.694,3.351-5.846,4.676-8.934c5.85-13.669,12.022-27.22,19.144-40.28c4.579-8.349,9.406-16.63,15.437-24.039   c4.735-6.001,11.218-10.22,17.117-14.964c13.927-10.634,27.985-21.287,39.988-34.118   C361.599,562.242,367.454,554.993,369.534,546.128z"/>
	<path fill="#C6956E" stroke="#C6956E" stroke-width="0.5" d="M688.312,547.272c1.003,1.929,1.203,4.116,1.783,6.187   c2.801,10.181,7.935,19.899,15.695,27.172c5.768,5.446,12.865,9.416,20.449,11.725c10.634,3.303,21.984,3.746,32.988,2.436   c11.126-1.344,22.052-4.365,32.267-8.983c6.333-2.855,12.3-6.576,17.229-11.491c-3.113,7.994-8.822,14.925-16.065,19.514   c-9.075,5.826-19.889,8.228-30.523,8.978c-8.607,0.516-17.298,0.239-25.793-1.315c-8.262-1.525-16.367-4.355-23.421-8.978   c-7.029-4.555-12.86-10.897-16.884-18.233C691.479,566.007,689.009,556.664,688.312,547.272z"/>
	<path fill="#CCCCCC" stroke="#CCCCCC" stroke-width="0.5" d="M517.81,552.879c0.736,2.937,1.023,5.957,1.607,8.924   c5.051,28.044,12.012,55.98,23.908,81.968c7.112,15.31,16.094,30.012,28.282,41.824c10.814,10.624,24.566,18.433,39.52,21.312   c18.467,3.653,37.62,0.273,55.059-6.255c16.957-6.333,32.696-15.534,47.504-25.871c0.541,6.985,1.666,13.951,3.897,20.605   l0.049,0.151c-1.632,1.106-3.161,2.353-4.764,3.502c-13.089,9.426-27.868,16.426-43.33,20.961   c-19.504,5.724-40.056,7.546-60.306,6.211c-10.955-0.706-22.164-1.871-32.223-6.586c-13.274-5.914-23.976-16.513-31.751-28.633   c-8.866-13.815-14.546-29.422-18.613-45.254c-5.909-23.221-8.252-47.197-9.08-71.096   C517.707,567.395,517.259,560.118,517.81,552.879z"/>
	<path opacity="0.2" stroke="#000000" stroke-width="0.5" enable-background="new    " d="M489.464,587.45   c2.002,10.853,3.785,21.75,5.388,32.666c-0.882-0.385-1.685-0.916-2.431-1.5c-0.141-0.107-0.424-0.317-0.57-0.424   c-0.044-3.59-1.14-7.083-1.651-10.624c-0.94-4.486-1.291-9.065-1.422-13.639C488.743,591.752,488.772,589.535,489.464,587.45z"/>
	<path fill="#CACBCB" stroke="#CACBCB" stroke-width="0.5" d="M492.421,618.616c0.745,0.584,1.549,1.115,2.431,1.5   c0.473,5.115,1.296,10.225,1.734,15.359c-0.677-0.443-1.359-0.882-2.031-1.301l-0.034-0.205   C493.936,628.836,492.713,623.775,492.421,618.616z"/>
	<path fill="#AD1617" stroke="#AD1617" stroke-width="0.5" d="M497.618,663.583c-0.497-9.845-1.569-19.66-3.064-29.408   c0.672,0.419,1.354,0.857,2.031,1.301c1.096,10.556,1.934,21.18,1.666,31.804C497.857,666.082,497.643,664.835,497.618,663.583z"/>
	<path fill="#570A07" stroke="#570A07" stroke-width="0.5" d="M725.158,666.272c11.301-8.905,22.213-18.355,32.165-28.755   c9.007,8.885,18.36,17.419,28.107,25.491c-0.619,4.326-1.028,8.705-2.406,12.88c-2.455-2.143-4.287-4.862-6.333-7.365   c-6.026-7.813-11.413-16.114-16.182-24.751c-0.964-1.778-1.637-3.78-3.191-5.149c-1.578,3.088-2.241,6.537-3.595,9.728   c-4.15,10.264-10.001,19.787-16.966,28.38c-2.022,2.231-3.795,4.73-6.162,6.615c-1.671-3.205-3.103-6.547-3.936-10.069   C726.074,670.958,725.797,668.571,725.158,666.272z"/>
	<path fill="#6D0D09" stroke="#6D0D09" stroke-width="0.5" d="M757.318,638.622c1.554,1.369,2.226,3.371,3.191,5.149   c4.769,8.637,10.156,16.937,16.182,24.751c2.046,2.504,3.878,5.222,6.333,7.365l-0.073,0.229   c-2.728,8.14-7.882,15.783-15.461,20.099c-6.201,3.663-14.039,4.36-20.776,1.798c-6.941-2.572-12.412-8.135-16.021-14.482   l-0.097-0.185c2.367-1.885,4.141-4.384,6.162-6.615c6.966-8.593,12.816-18.116,16.966-28.38   C755.078,645.16,755.74,641.711,757.318,638.622z"/>
	<path fill="#851510" stroke="#851510" stroke-width="0.5" d="M785.43,663.008c3.634,2.981,7.331,5.88,11.058,8.749   c-0.229,5.612-0.828,11.218-2.1,16.694c-3.882-4.048-7.925-7.95-11.438-12.334l0.073-0.229   C784.402,671.713,784.811,667.333,785.43,663.008z"/>
	<path fill="#851510" stroke="#851510" stroke-width="0.5" d="M713.692,674.782c3.868-2.777,7.696-5.607,11.467-8.51   c0.638,2.299,0.916,4.686,1.5,7.005c0.833,3.522,2.265,6.864,3.936,10.069l0.097,0.185c-4.038,4.292-8.388,8.315-13.104,11.857   C715.357,688.733,714.232,681.767,713.692,674.782z"/>
	<path fill="#A61A14" stroke="#A61A14" stroke-width="0.5" d="M767.489,696.215c7.58-4.316,12.733-11.959,15.461-20.099   c3.512,4.384,7.555,8.286,11.438,12.334l-0.029,0.141c-2.947,12.743-9.07,25.277-19.412,33.616   c-6.532,5.271-15.111,8.271-23.528,7.146c-8.067-1.003-15.354-5.47-20.849-11.321c-5.987-6.367-10.186-14.243-12.933-22.495   l-0.049-0.151c4.715-3.541,9.065-7.565,13.104-11.857c3.61,6.347,9.08,11.91,16.021,14.482   C753.451,700.575,761.288,699.878,767.489,696.215z"/>
	<path fill="#DE292C" stroke="#DE292C" stroke-width="0.5" d="M1021.022,715.096c13.727,8.359,27.23,17.083,40.48,26.178   c29.617,20.391,58.352,42.253,84.379,67.116c11.964,11.501,23.289,23.733,33.158,37.099c-7.244,3.459-14.395,7.214-20.839,12.042   c-6.113,4.516-11.672,10.03-15.184,16.84c-8.773,14.604-20.216,27.479-32.852,38.843c-12.699,11.365-26.685,21.243-41.435,29.753   c-7.083,4.004-14.336,7.77-20.922,12.582c-12.485,8.871-23.767,20.206-30.002,34.391c-4.321,9.669-5.763,20.586-4.097,31.049   c-10.79,2.928-21.784,5.017-32.759,7.092c-22.325,4.068-44.796,7.244-67.301,10.113c-24.975,3.122-50.013,5.772-75.085,8.018   c-15.174,1.315-30.348,2.694-45.556,3.546c0.024-8.593,0.19-17.195-0.088-25.783c14.716-5.919,28.604-14.058,40.558-24.522   c10.083-8.89,18.993-19.271,25.306-31.186c21.316,0.078,42.638-2.645,63.306-7.852c17.532-4.53,34.634-11.072,50.183-20.415   c14.394-8.612,27.342-19.792,37.391-33.261c9.718-13.05,16.601-28.131,20.43-43.929c1.276-5.334,2.465-10.722,2.923-16.192   c0.823-5.758,1.198-11.564,1.471-17.366c0.088-1.978-0.273-3.931-0.833-5.806c-4.71-13.186-9.28-26.451-12.758-40.027   c-2.845-11.116-4.715-22.573-4.282-34.079C1016.838,737.796,1019.054,726.436,1021.022,715.096z"/>
	<path fill="#B22123" stroke="#B22123" stroke-width="0.5" d="M481.456,762.62c0.843,8.788,2.606,17.536,5.88,25.759   c5.363,13.917,15.578,25.939,28.677,33.144c7.024,3.761,14.297,7.034,21.263,10.912c8.052,4.394,16.08,8.983,23.153,14.877   c3.113,2.777,6.376,5.928,7.331,10.156c0.784,3.61-1.193,6.971-2.85,10.025c-4.535-5.285-10.405-9.153-16.246-12.836   c-6.703-4.145-13.688-7.809-20.683-11.423c-4.301-2.221-8.744-4.165-12.948-6.576c-6.771-3.985-12.884-9.143-17.785-15.301   c-11.053-13.795-15.549-31.731-16.134-49.126C481.066,769.025,480.55,765.747,481.456,762.62z"/>
	<path fill="#AC1517" stroke="#AC1517" stroke-width="0.5" d="M1033.658,823.447c0.56,1.875,0.921,3.829,0.833,5.806   c-0.273,5.802-0.648,11.608-1.471,17.366c-0.234,0.75-0.492,1.495-0.726,2.26c-0.195-0.01-0.589-0.024-0.789-0.034   C1032.879,840.457,1033.717,831.947,1033.658,823.447z"/>
	<path fill="#B22123" stroke="#B22123" stroke-width="0.5" d="M1032.294,848.879c0.234-0.765,0.492-1.51,0.726-2.26   c-0.458,5.47-1.647,10.858-2.923,16.192c-3.829,15.797-10.712,30.879-20.43,43.929c-10.049,13.469-22.997,24.648-37.391,33.261   c-15.549,9.343-32.652,15.885-50.183,20.415c-20.669,5.207-41.99,7.93-63.306,7.852c-6.313,11.915-15.223,22.296-25.306,31.186   c-11.954,10.463-25.842,18.603-40.558,24.522c-0.989-2.718-3.381-5.076-6.391-5.168c-11.584-0.166-23.187,0.107-34.766-0.117   c27.201-3.517,54.002-13.118,75.757-30.09c12.524-9.859,23.699-21.833,31.117-36.037c20.449,1.593,41.103,0.477,61.304-3.035   c18.934-3.395,37.606-9.182,54.426-18.637c14.268-7.969,27.06-18.764,36.7-32.009c10.804-14.677,17.395-32.145,20.435-50.037   C1031.705,848.855,1032.099,848.87,1032.294,848.879z"/>
	<path fill="#F2F2F2" stroke="#F2F2F2" stroke-width="0.5" d="M1200.181,849.863c10.074-0.58,20.98,0.287,29.476,6.279   c6.786,4.657,10.941,12.207,13.045,20.021c3.571,11.603,2.372,24.19-1.51,35.55c-2.928,9.182-7.589,17.692-12.685,25.832   c-7.531,11.686-16.392,22.471-25.798,32.681c-2.172,2.684-4.749,4.988-7.136,7.473c-4.448,4.462-8.885,8.939-13.386,13.347   c-2.538,2.694-5.539,4.886-8.067,7.594c-6.522,5.987-13.191,11.813-19.855,17.639c-6.776,5.738-13.347,11.735-20.513,16.986   c-7.804,5.573-15.929,10.726-24.619,14.809c-8.963,4.087-18.335,7.502-28.122,8.929c-11.569,1.812-23.927,0.886-34.391-4.715   c-3.454-2.119-6.873-4.418-9.582-7.463c-6.513-7.122-10.483-16.323-12.149-25.769c-1.68-10.337,0.755-21.156,6.177-30.065   c2.445-4.345,5.548-8.291,9.041-11.837c6.44-7.058,14.258-12.68,22.398-17.614c6.664-3.892,13.527-7.443,20.026-11.613   c17.01-10.556,32.886-23.026,46.778-37.465c9.665-10.059,18.369-21.131,25.214-33.309c3.897-5.617,9.299-10.03,15.042-13.659   c7.346-4.769,15.403-8.301,23.523-11.516C1195.393,851.101,1197.692,850.082,1200.181,849.863z"/>
	<path fill="#B22123" stroke="#B22123" stroke-width="0.5" d="M560.706,910.534c-0.088-1.018,0.229-1.973,0.662-2.859   c2.392,22.69,10.97,44.942,25.774,62.444c8.627,10.327,19.212,18.935,30.806,25.73c23.002,13.445,49.385,19.811,75.65,22.817   c-6.542,0.292-13.109-0.005-19.655,0.102c-9.572-0.005-19.139-0.005-28.701,0c-3.264,0.049-6.825-0.536-9.645,1.52   c-15.276-6.396-29.714-15.203-41.464-26.953c-9.406-9.177-17.01-20.152-22.486-32.092   C564.359,945.408,560.793,927.939,560.706,910.534z"/>
	<path fill="#C2C2C2" stroke="#C2C2C2" stroke-width="0.5" d="M592.14,914.407c21.701,18.209,46.048,33.373,72.221,44.275   c26.046,10.775,54.392,17.044,82.67,15.033c21.355-1.417,42.311-7.799,60.963-18.267c8.564-4.808,16.708-10.376,24.298-16.616   c1.461-1.111,2.669-2.562,4.335-3.386c-0.789,1.422-2.153,2.367-3.278,3.502c-14.575,13.703-30.684,25.832-48.167,35.579   c-20.513,11.408-43.305,19.485-66.901,20.566c-15.072,0.706-30.304-1.573-44.435-6.893c-22.266-8.218-41.401-23.294-57.12-40.84   c-8.383-9.314-15.914-19.373-22.773-29.856C593.289,916.506,592.51,915.552,592.14,914.407z"/>
	<path fill="#C22527" stroke="#C22527" stroke-width="0.5" d="M1180.116,1008.485c18.403-16.869,36.193-34.615,51.041-54.758   c3.181,2.465,6.411,4.876,9.587,7.356c-4.233,8.033-10.629,14.575-16.762,21.151c-18.462,18.165-38.809,34.303-59.526,49.813   c-1.047-2.236-2.007-4.506-3.181-6.669C1167.451,1019.645,1173.944,1014.233,1180.116,1008.485z"/>
	<path fill="#DE292C" stroke="#DE292C" stroke-width="0.5" d="M1240.744,961.083c14.511,11.34,28.609,23.221,42.102,35.755   c13.693,12.802,26.884,26.241,38.278,41.157c5.305,7.063,10.244,14.463,13.961,22.5c2.27,4.974,4.072,10.225,4.691,15.685   c0.731,5.431-0.273,11.106-2.986,15.885c-3.804,7.312-10.137,13.362-17.848,16.387c-10.332,4.194-21.891,3.653-32.637,1.573   c-16.898-3.483-32.798-10.722-47.568-19.49c-6.6-3.975-12.982-8.315-18.983-13.142c0.268,6.82,0.131,13.664-0.565,20.454   c-0.589,4.828-1.359,9.703-3.249,14.219c-1.033,2.328-2.445,4.706-4.784,5.909c-1.783,0.93-3.853,0.701-5.763,0.468   c-4.175-0.395-8.223-2.241-11.136-5.271c-3.191-3.356-5.086-7.706-6.352-12.1c-1.461-4.857-1.875-9.918-2.626-14.901   c-1.895-8.997-5.295-17.58-8.656-26.11c-3.814-9.44-7.921-18.764-12.168-28.014c20.717-15.51,41.064-31.648,59.526-49.813   C1230.115,975.658,1236.511,969.116,1240.744,961.083z"/>
	<path fill="#6B0408" stroke="#6B0408" stroke-width="0.5" d="M380.436,1008.977c26.714,8.997,53.963,16.333,81.437,22.622   c56.224,12.787,113.592,20.898,171.248,22.797c0,29.865,0,59.731,0,89.601c-51.864-1.125-103.747-4.891-154.973-13.279   c-41.552-6.873-82.743-16.679-122.282-31.312C363.027,1068.995,371.132,1038.804,380.436,1008.977z"/>
	<path fill="#BAAC09" stroke="#BAAC09" stroke-width="0.5" d="M635.596,1020.288c2.82-2.056,6.381-1.471,9.645-1.52   c9.562-0.005,19.129-0.005,28.701,0c6.547-0.107,13.113,0.19,19.655-0.102c19.305,2.182,38.877,2.538,58.167,0.024   c11.579,0.224,23.182-0.049,34.766,0.117c3.01,0.093,5.402,2.45,6.391,5.168c-18.204,7.122-37.62,10.848-57.11,11.847   c-22.51,1.125-45.137-0.979-67.199-5.47c-11.233-2.367-22.271-5.675-32.895-10.015L635.596,1020.288z"/>
	<path fill="#E9D70B" stroke="#E9D70B" stroke-width="0.5" d="M633.121,1026.002c-0.093-2.187,0.964-4.253,2.596-5.665   c10.624,4.34,21.662,7.648,32.895,10.015c22.062,4.491,44.689,6.596,67.199,5.47c19.49-0.999,38.906-4.725,57.11-11.847   c0.278,8.588,0.112,17.191,0.088,25.783v0.024c-1.052,1.072-0.609,2.665-0.692,4.014c0.049,26.782,0.015,53.569,0.024,80.351   c0.093,1.671-0.438,3.575,0.658,5.042l0.034,0.068c0.058,9.996-0.005,19.992,0.029,29.992c-0.015,1.208,0.049,2.436-0.122,3.653   c-0.589,3.225-3.634,5.831-6.937,5.772c-48.542,0.01-97.084-0.005-145.625,0.005c-3.809,0.195-7.331-3.181-7.248-6.995   c-0.029-9.231,0-18.462-0.01-27.688c0-29.87,0-59.736,0-89.601C633.126,1044.932,633.117,1035.467,633.121,1026.002    M675.477,1055.366c-3.366,0.492-6.04,3.76-5.855,7.166c0,23.723,0.005,47.451,0,71.178c0.015,1.447-0.102,2.918,0.175,4.365   c0.697,3.176,3.814,5.626,7.083,5.49c23.864-0.01,47.733-0.005,71.607-0.005c1.559-0.039,3.191,0.17,4.696-0.395   c2.718-0.964,4.754-3.688,4.74-6.6c0.01-24.673-0.005-49.346,0.005-74.018c0.141-3.196-2.163-6.279-5.251-7.054   c-1.685-0.395-3.42-0.273-5.12-0.282c-18.194,0.005-36.393,0-54.587,0C687.138,1055.298,681.293,1055.02,675.477,1055.366z"/>
	<path fill="#6B0408" stroke="#6B0408" stroke-width="0.5" d="M980.951,1028.082c10.975-2.075,21.969-4.165,32.759-7.092   c2.192,12.495,7.789,24.702,17.01,33.573c6.586,6.313,14.95,10.678,23.806,12.802c3.166,8.037,5.889,16.25,8.486,24.493   c-41.522,14.258-84.331,24.648-127.607,31.96c-21.594,3.644-43.33,6.425-65.133,8.5c-24.97,2.557-49.974,4.827-75.007,6.664   c-0.755,0.063-1.5,0.156-2.231,0.278L793,1139.19c0.049-29.802,0.034-59.604,0.01-89.406v-0.024   c15.208-0.852,30.382-2.231,45.556-3.546c25.072-2.246,50.11-4.896,75.085-8.018   C936.156,1035.326,958.627,1032.15,980.951,1028.082z"/>
	<path fill="#FBF50B" stroke="#FBF50B" stroke-width="0.5" d="M792.318,1053.797c0.083-1.349-0.36-2.942,0.692-4.014   c0.024,29.802,0.039,59.604-0.01,89.406c-1.096-1.466-0.565-3.371-0.658-5.042C792.333,1107.366,792.367,1080.579,792.318,1053.797   z"/>
	<path fill="#6A0004" stroke="#6A0004" stroke-width="0.5" d="M675.477,1055.366c5.816-0.346,11.662-0.068,17.493-0.156   c18.194,0,36.393,0.005,54.587,0c1.7,0.01,3.434-0.112,5.12,0.282c3.088,0.775,5.392,3.858,5.251,7.054   c-0.01,24.673,0.005,49.346-0.005,74.018c0.015,2.913-2.022,5.636-4.74,6.6c-1.505,0.565-3.137,0.356-4.696,0.395   c-23.874,0-47.743-0.005-71.607,0.005c-3.269,0.136-6.386-2.314-7.083-5.49c-0.278-1.447-0.161-2.918-0.175-4.365   c0.005-23.728,0-47.456,0-71.178C669.436,1059.126,672.111,1055.858,675.477,1055.366z"/>
	<path fill="#DE292C" stroke="#DE292C" stroke-width="0.5" d="M935.405,1123.816c43.276-7.312,86.084-17.702,127.607-31.96   c2.406,7.838,4.589,15.754,6.333,23.772c2.075,9.889,3.751,19.933,3.717,30.065c-7.497,2.967-15.213,5.324-22.997,7.409   c-21.01,5.539-42.419,9.406-63.867,12.807c-23.275,3.658-46.657,6.625-70.073,9.221c-47.475,5.217-95.106,8.904-142.781,11.637   c-54.343,3.064-108.765,4.827-163.201,4.9c-24.2-0.141-48.41-0.336-72.581-1.534c-25.55-1.174-51.065-3.186-76.449-6.347   c-24.356-3.108-48.639-7.136-72.421-13.318c-13.206-3.527-26.368-7.492-38.78-13.279c-2.022-0.833-3.712-2.319-5.821-2.932   c3.624-18.345,7.458-36.656,11.774-54.85c39.54,14.633,80.731,24.439,122.282,31.312c51.226,8.388,103.109,12.154,154.973,13.279   c0.01,9.226-0.02,18.457,0.01,27.688c-0.083,3.814,3.439,7.19,7.248,6.995c48.542-0.01,97.084,0.005,145.625-0.005   c3.303,0.058,6.347-2.548,6.937-5.772c0.17-1.218,0.107-2.445,0.122-3.653c-0.034-10.001,0.029-19.996-0.029-29.992   c0.731-0.122,1.476-0.214,2.231-0.278c25.033-1.836,50.037-4.106,75.007-6.664C892.076,1130.241,913.811,1127.46,935.405,1123.816z   "/>
	<path fill="#DE292C" stroke="#DE292C" stroke-width="0.5" d="M872.693,1398.339c8.637-0.409,17.273-0.94,25.91-1.262l0.083,0.244   c0.088,0.107,0.258,0.322,0.346,0.429c0.448-0.058,1.349-0.175,1.802-0.234c-3.785,6.23-8.154,12.115-12.198,18.184   c1.057,15.627,1.924,31.264,2.869,46.9c-25.413-1.033-50.841-1.763-76.254-2.723c-26.456-0.877-52.902-1.856-79.352-2.742   c-2.626-0.263-5.28-0.024-7.891-0.365c-3.488-17.595-7.516-35.092-10.98-52.687   C768.951,1403.469,820.834,1400.979,872.693,1398.339z"/>
	<path fill="#DA0D10" stroke="#DA0D10" stroke-width="0.5" d="M898.686,1397.321c0.667-0.526,1.646-0.419,2.45-0.253l0.156,0.205   c-0.117,0.063-0.346,0.185-0.458,0.244c-0.453,0.058-1.354,0.175-1.802,0.234C898.944,1397.642,898.774,1397.428,898.686,1397.321z   "/>
	<path fill="#DE292C" stroke="#DE292C" stroke-width="0.5" d="M530.889,1398.407c58.81,5.397,117.927,6.459,176.952,5.845   c-4.165,18.954-8.281,37.923-12.422,56.886c-47.835-2.416-95.681-4.725-143.521-7.136   C544.869,1435.482,537.928,1416.928,530.889,1398.407z"/>
	<path fill="#531E0C" stroke="#531E0C" stroke-width="0.5" d="M712.211,1437.567c0.531,0.282,0.336,0.94,0.531,1.456   c1.958,9.64,4.097,19.241,6.05,28.886c57.831,2.036,115.657,3.98,173.484,6.07c0.039,2.85,0.234,5.699,0.317,8.564l-0.239,0.117   c-0.088,0.039-0.268,0.127-0.356,0.166c0.161,0.862,0.292,1.749,0.404,2.655c-5.105-0.078-10.2-0.331-15.301-0.312   c-6.829-0.058-13.639-0.599-20.464-0.58c-7.95-0.107-15.9-0.424-23.849-0.433c-11.048-0.585-22.111-0.536-33.163-0.887   c-6.177,0.063-12.334-0.487-18.506-0.502c-6.659-0.024-13.294-0.662-19.948-0.633c-5.529-0.117-11.048-0.38-16.572-0.409   c-11.501-0.58-23.012-0.736-34.522-1.018c-13.493-0.653-27.006-0.711-40.499-1.286c-6.664-0.034-13.308-0.424-19.962-0.653   c-5.86,0.01-11.706-0.39-17.561-0.404c-5.836-0.024-11.652-0.619-17.488-0.594c-17.809-0.37-35.604-1.096-53.413-1.486   c-5.105-0.287-10.215-0.477-15.33-0.511c-3.395,0.005-6.8-0.516-10.176,0.024c-0.151-1.208-0.317-2.392-0.487-3.566   c-0.39-6.805-0.589-13.625-0.833-20.435c-0.093-4.379-0.497-8.758-0.351-13.133c3.283,8.788,6.61,17.57,9.923,26.353   c50.817,2.479,101.628,5.032,152.445,7.526c2.684,0.107,5.368,0.307,8.057,0.453C707.13,1461.217,709.546,1449.36,712.211,1437.567   z"/>
	<path fill="#772F17" stroke="#772F17" stroke-width="0.5" d="M535.161,1472.231c0.17,1.174,0.336,2.358,0.487,3.566   c3.376-0.541,6.781-0.02,10.176-0.024c5.115,0.034,10.225,0.224,15.33,0.511c17.809,0.39,35.604,1.115,53.413,1.486   c5.836-0.024,11.652,0.57,17.488,0.594c5.855,0.015,11.701,0.414,17.561,0.404c6.654,0.229,13.298,0.619,19.962,0.653   c13.493,0.575,27.006,0.633,40.499,1.286c11.511,0.283,23.021,0.438,34.522,1.018c5.524,0.029,11.043,0.292,16.572,0.409   c6.654-0.029,13.289,0.609,19.948,0.633c6.172,0.015,12.329,0.565,18.506,0.502c11.053,0.351,22.115,0.302,33.163,0.887   c7.95,0.01,15.9,0.326,23.849,0.433c6.825-0.019,13.635,0.521,20.464,0.58c5.1-0.02,10.195,0.234,15.301,0.312   c-0.112-0.906-0.244-1.793-0.404-2.655c0.088-0.039,0.268-0.127,0.356-0.166c0.117,0.029,0.346,0.083,0.463,0.112   c0.024,9.177,0.731,18.355,1.081,27.532c-18.569-11.277-40.051-17.264-61.631-18.861c-23.309-1.627-47.124,1.773-68.679,10.951   c-18.559,7.945-35.706,20.308-47.032,37.231c-1.106-7.575-1.739-15.223-2.952-22.783c-3.113,16.854-6.571,33.641-9.762,50.476   c-0.209,0.77-0.161,1.705-0.716,2.372c-2.401-16.762-11.443-32.048-23.358-43.856c-13.362-13.143-30.211-22.422-48.021-28.024   c-30.835-9.577-64.753-8.997-95.223,1.71C536.048,1490.42,535.448,1481.33,535.161,1472.231z"/>
	<path fill="#974327" stroke="#974327" stroke-width="0.5" d="M580.522,1502.564c22.447-0.999,45.307,3.2,65.498,13.211   c14.541,7.273,27.815,17.751,36.641,31.546c5.582,8.715,9.148,18.769,9.874,29.12c0.624,9.363-0.736,19.271-5.982,27.255   c-4.633,7.185-12.066,12.071-19.889,15.189c-10.254,4.063-21.253,5.777-32.17,6.893c-11.165,1.077-22.388,1.393-33.597,1.539   c-12.982,0.073-25.969,0.117-38.941-0.448c-12.509-0.492-25.048-1.491-37.338-3.955c-9.713-2.022-19.456-4.988-27.742-10.605   c-6.898-4.628-12.324-11.579-14.497-19.651c-2.83-10.42-1.719-21.638,1.773-31.76c5.417-15.461,16.815-28.219,30.172-37.406   C533.714,1510.202,557.164,1503.523,580.522,1502.564z"/>
	<path fill="#974327" stroke="#974327" stroke-width="0.5" d="M814.394,1502.578c22.671-1.062,45.775,3.152,66.156,13.313   c14.131,7.117,27.065,17.254,35.838,30.557c5.923,8.924,9.708,19.319,10.449,30.036c0.614,9.226-0.716,18.969-5.777,26.894   c-4.145,6.596-10.687,11.34-17.717,14.487c-9.353,4.184-19.524,6.074-29.622,7.38c-12.456,1.476-25.004,1.871-37.538,2.061   c-13.805,0.097-27.62,0.127-41.415-0.497c-13.737-0.614-27.527-1.783-40.918-5.037c-8.719-2.202-17.41-5.363-24.619-10.877   c-6.303-4.75-11.014-11.618-12.85-19.319c-2.47-10.234-1.291-21.131,2.173-30.991c5.504-15.452,16.981-28.151,30.377-37.304   C768.142,1510.207,791.305,1503.606,814.394,1502.578z"/>
</g>
</svg>